<svg xmlns="http://www.w3.org/2000/svg" x="0px" y="0px"
width="20" height="20"
viewBox="0 0 172 172"
style=" fill:#000000;"><g fill="none" fill-rule="nonzero" stroke="none" stroke-width="1" stroke-linecap="butt" stroke-linejoin="miter" stroke-miterlimit="10" stroke-dasharray="" stroke-dashoffset="0" font-family="none" font-weight="none" font-size="none" text-anchor="none" style="mix-blend-mode: normal"><path d="M0,172v-172h172v172z" fill="none"></path><g fill="#000000"><path d="M106.3175,6.88c-9.15094,0 -14.60656,1.70656 -16.4475,2.15c-1.00781,0.24188 -1.505,0.43 -3.01,0.9675c-1.505,0.5375 -3.52062,1.27656 -5.9125,2.15c-4.77031,1.74688 -10.99187,4.05813 -17.415,6.45c-12.84625,4.77031 -26.39125,9.87656 -30.53,11.5025c-2.21719,0.86 -4.00437,1.67969 -5.4825,2.9025c-1.47812,1.22281 -2.55312,2.96969 -3.01,4.73c-0.91375,3.49375 0.05375,6.5575 0.9675,10.6425v0.1075c0.02688,0.14781 2.0425,11.54281 3.44,16.34c1.35719,4.64938 4.07156,8.21031 8.2775,9.7825c34.14469,12.55063 56.66594,11.395 62.565,11.395c0.215,-0.01344 0.43,-0.05375 0.645,-0.1075c0.45688,-0.09406 0.90031,-0.26875 1.29,-0.5375l0.215,-0.1075c0.08063,-0.06719 0.14781,-0.13437 0.215,-0.215l3.44,-2.2575l0.86,7.955c-0.65844,0.76594 -1.49156,1.81406 -3.225,3.7625c-2.16344,2.43219 -4.60906,4.97188 -5.4825,5.805c-0.08062,0.06719 -0.14781,0.13438 -0.215,0.215c-0.01344,0.01344 -0.09406,0.09406 -0.1075,0.1075c-0.08062,0.06719 -0.14781,0.13438 -0.215,0.215c-0.08062,0.06719 -0.14781,0.13438 -0.215,0.215c0,0.04031 0,0.06719 0,0.1075c-0.08062,0.06719 -0.14781,0.13438 -0.215,0.215c-0.04031,0.1075 -0.08062,0.215 -0.1075,0.3225c-0.09406,0.20156 -0.16125,0.43 -0.215,0.645c0,0.04031 0,0.06719 0,0.1075c-0.04031,0.06719 -0.08062,0.14781 -0.1075,0.215c0,0.04031 0,0.06719 0,0.1075c-0.08062,0.65844 0.02688,1.33031 0.3225,1.935c0.02688,0.14781 0.06719,0.29563 0.1075,0.43l3.3325,10.32c0.40313,1.15563 1.38406,2.01563 2.58,2.2575c0,0 4.03125,0.81969 6.45,1.29c0.22844,2.23063 0.48375,4.50156 0.645,6.1275c0.1075,1.14219 0.14781,2.12313 0.215,2.795c0.02688,0.33594 0.09406,0.57781 0.1075,0.7525c-0.01344,-0.02687 -0.1075,0.26875 -0.645,0.86c-0.71219,0.77938 -1.98875,1.8275 -3.3325,3.1175c-2.70094,2.58 -6.1275,6.38281 -6.1275,11.9325c0,2.67406 1.15563,5.01219 2.58,7.2025c1.42438,2.19031 3.34594,4.23281 5.375,6.1275c2.02906,1.89469 4.16563,3.66844 6.3425,4.945c2.17688,1.27656 4.27313,2.2575 6.7725,2.2575h24.6175c2.74125,0 5.16,-1.35719 7.095,-3.225c1.935,-1.86781 3.5475,-4.27312 4.8375,-7.2025c2.59344,-5.84531 4.085,-13.6525 4.085,-22.575c0,-19.0275 -10.6425,-43.38969 -10.6425,-66.435c0,-6.47687 1.78719,-12.52375 3.3325,-15.265c0.36281,-0.645 0.71219,-1.27656 1.075,-1.8275c0.04031,-0.04031 0.06719,-0.06719 0.1075,-0.1075c0.02688,-0.04031 0.08063,-0.06719 0.1075,-0.1075c0.29563,-0.34937 0.51063,-0.7525 0.645,-1.1825c0.20156,-0.33594 0.44344,-0.55094 0.645,-0.9675c0.86,-1.76031 1.29,-3.95062 1.29,-7.095v-17.5225c0,-4.09844 -2.20375,-7.29656 -4.515,-8.815c-2.31125,-1.51844 -4.54187,-1.81406 -5.4825,-1.935c0.08063,0.01344 -2.06937,-0.26875 -5.0525,-0.645c-2.98312,-0.37625 -6.9875,-0.79281 -11.395,-1.29c-8.815,-0.98094 -19.04094,-2.0425 -25.4775,-2.0425zM106.3175,13.76c5.6975,0 16.00406,0.95406 24.725,1.935c4.36719,0.48375 8.33125,1.02125 11.2875,1.3975c2.95625,0.37625 4.64938,0.59125 5.0525,0.645c0.59125,0.06719 1.77375,0.33594 2.58,0.86c0.80625,0.52406 1.3975,0.92719 1.3975,3.01v17.5225c0,2.55313 -0.28219,3.3325 -0.645,4.085c-0.06719,0.14781 -0.3225,0.57781 -0.43,0.7525l-43.43,29.67c-0.22844,0.12094 -0.44344,0.26875 -0.645,0.43l-3.87,2.58l-3.9775,-27.1975c-0.215,-1.505 -1.3975,-2.6875 -2.9025,-2.9025c-22.50781,-3.5475 -50.71312,-8.72094 -59.4475,-10.32c4.21938,-1.63937 17.28063,-6.50375 29.885,-11.18c6.40969,-2.37844 12.65813,-4.71656 17.415,-6.45c2.37844,-0.87344 4.34031,-1.62594 5.805,-2.15c1.46469,-0.52406 2.83531,-0.87344 2.365,-0.7525c2.45906,-0.59125 6.46344,-1.935 14.835,-1.935zM31.2825,42.355c4.68969,0.87344 36.18719,6.70531 60.63,10.6425l3.87,26.1225c-8.7075,0.06719 -27.03625,-0.24187 -56.2225,-10.965c-2.62031,-0.98094 -3.01,-1.46469 -4.085,-5.16c-1.02125,-3.50719 -3.225,-15.8025 -3.225,-15.8025c-0.02687,-0.06719 -0.06719,-0.14781 -0.1075,-0.215c-0.43,-1.90812 -0.69875,-3.41312 -0.86,-4.6225zM145.34,55.5775c-0.68531,3.07719 -1.1825,6.45 -1.1825,10.105c0,25.07438 10.6425,50.17563 10.6425,66.435c0,8.11625 -1.47812,15.11719 -3.5475,19.78c-1.03469,2.33813 -2.17687,4.04469 -3.225,5.0525c-1.04812,1.00781 -1.80062,1.29 -2.365,1.29h-24.6175c-0.17469,0 -1.72,-0.33594 -3.3325,-1.29c-1.6125,-0.95406 -3.46687,-2.39187 -5.16,-3.9775c-1.69312,-1.58562 -3.17125,-3.37281 -4.1925,-4.945c-1.02125,-1.57219 -1.505,-3.03687 -1.505,-3.44c0,-2.795 1.63938,-4.75687 3.9775,-6.9875c1.16906,-1.11531 2.48594,-2.16344 3.655,-3.44c1.16906,-1.27656 2.4725,-2.94281 2.4725,-5.375c0,-0.51062 0.01344,-0.43 0,-0.645c-0.01344,-0.215 -0.08062,-0.51062 -0.1075,-0.86c-0.06719,-0.69875 -0.1075,-1.65281 -0.215,-2.795c-0.1075,-1.10187 -0.29562,-2.78156 -0.43,-4.1925c3.18469,0.60469 5.89906,1.20938 7.095,1.3975c0.49719,0.08063 1.02125,0.04031 1.505,-0.1075c5.88563,-1.62594 9.46,-6.04687 11.0725,-10.8575c1.53188,-4.52844 1.73344,-9.47344 1.72,-14.19c0.25531,-1.00781 0.05375,-2.08281 -0.57781,-2.92937c-0.63156,-0.83313 -1.59906,-1.34375 -2.64719,-1.37063h-0.5375l-20.64,-3.3325l-1.29,-10.535zM111.37,95.5675l15.265,2.365l-5.805,5.4825l-14.19,-2.58c0.57781,-0.645 1.08844,-1.11531 1.72,-1.8275c1.6125,-1.8275 2.2575,-2.58 3.01,-3.44zM130.1825,104.1675c-0.12094,1.62594 -0.33594,3.14438 -0.7525,4.4075c-1.08844,3.225 -2.6875,5.0525 -6.1275,6.1275c-1.8275,-0.3225 -5.14656,-0.95406 -9.675,-1.8275c-0.29562,-0.05375 -0.34937,-0.05375 -0.645,-0.1075c-0.1075,-0.04031 -0.215,-0.08062 -0.3225,-0.1075c-0.18812,-0.04031 -0.24187,0.04031 -0.43,0c-2.795,-0.5375 -5.2675,-1.10187 -6.235,-1.29l-1.1825,-3.7625l16.4475,2.9025c1.04813,0.17469 2.12313,-0.13437 2.9025,-0.86zM10.32,110.08v41.28h10.32v-41.28zM27.52,110.08v41.28h6.88v-41.28zM41.28,110.08v41.28h10.32v-41.28zM58.48,110.08v41.28h6.88v-41.28z"></path></g></g></svg>