<svg xmlns="http://www.w3.org/2000/svg" x="0px" y="0px"
width="30" height="30"
viewBox="0 0 172 172"
style=" fill:#000000;"><g fill="none" fill-rule="nonzero" stroke="none" stroke-width="1" stroke-linecap="butt" stroke-linejoin="miter" stroke-miterlimit="10" stroke-dasharray="" stroke-dashoffset="0" font-family="none" font-weight="none" font-size="none" text-anchor="none" style="mix-blend-mode: normal"><path d="M0,172v-172h172v172z" fill="none"></path><g fill="#ffffff"><path d="M59.125,24.1875l-5.375,16.125l-33.58325,4.19922c-5.38037,0.67188 -9.41675,5.24533 -9.41675,10.66602v79.19727c0,5.93669 4.81331,10.75 10.75,10.75h129c5.93669,0 10.75,-4.81331 10.75,-10.75v-79.19727c0,-5.42069 -4.03637,-9.99414 -9.41675,-10.66602l-33.58325,-4.19922l-5.375,-16.125zM18.8125,29.5625v8.0625h21.5v-8.0625zM86,59.125c17.81006,0 32.25,14.43994 32.25,32.25c0,17.81006 -14.43994,32.25 -32.25,32.25c-17.81006,0 -32.25,-14.43994 -32.25,-32.25c0,-17.81006 14.43994,-32.25 32.25,-32.25zM129,59.125h18.8125v10.75h-13.4375c-2.96969,0 -5.375,-2.40531 -5.375,-5.375z"></path></g></g></svg>