<svg xmlns="http://www.w3.org/2000/svg" x="0px" y="0px"
width="20" height="20"
viewBox="0 0 172 172"
style=" fill:#000000;"><g fill="none" fill-rule="nonzero" stroke="none" stroke-width="1" stroke-linecap="butt" stroke-linejoin="miter" stroke-miterlimit="10" stroke-dasharray="" stroke-dashoffset="0" font-family="none" font-weight="none" font-size="none" text-anchor="none" style="mix-blend-mode: normal">
<path d="M0,172v-172h172v172z" fill="none"></path><g fill="#ffffff"><path d="M86,19.35c-17.78789,0 -32.25,14.46211 -32.25,32.25v15.62109c0,11.61504 6.19805,21.73516 15.45313,27.37891h-0.40313v11.35469c-3.08223,1.03301 -11.03555,3.85488 -19.24082,7.95332c-5.19863,2.60351 -10.43086,5.67734 -14.4873,9.20469c-4.05645,3.51895 -7.12187,7.60059 -7.12187,12.3373v17.2h116.1v-17.2c0,-4.73672 -3.06543,-8.81836 -7.12187,-12.3373c-4.05645,-3.52734 -9.28867,-6.60117 -14.4873,-9.20469c-8.20527,-4.09844 -16.15859,-6.92031 -19.24082,-7.95332v-11.35469h-0.40312c9.25508,-5.64375 15.45313,-15.76387 15.45313,-27.37891v-15.62109c0,-17.78789 -14.46211,-32.25 -32.25,-32.25zM86,23.65c15.46152,0 27.95,12.48848 27.95,27.95v15.62109c0,13.76504 -9.93535,25.14492 -23.01172,27.47969l-0.61309,0.10918l-0.46191,0.41992c-1.04141,0.94902 -2.36836,1.52012 -3.86328,1.52012c-1.49492,0 -2.82188,-0.57109 -3.86328,-1.52012l-0.46191,-0.41992l-0.61309,-0.10918c-13.07637,-2.33476 -23.01172,-13.71465 -23.01172,-27.47969v-15.62109c0,-15.46152 12.48848,-27.95 27.95,-27.95zM73.1,96.60723c2.10801,0.92383 4.3252,1.65449 6.63477,2.11641c1.71328,1.39414 3.86328,2.32637 6.26523,2.32637c2.40195,0 4.55195,-0.93223 6.26524,-2.32637c2.30957,-0.46191 4.52676,-1.19258 6.63476,-2.11641v12.3709c-0.26035,0.5207 -3.66172,7.12188 -12.9,7.12188c-9.23828,0 -12.63965,-6.60117 -12.9,-7.12188zM68.94277,110.45625l0.08399,0.15957c0,0 5.07266,9.78418 16.97324,9.78418c11.90059,0 16.97324,-9.78418 16.97324,-9.78418l0.08399,-0.15957c3.59453,1.25137 10.43926,3.7877 17.45195,7.29824c5.01387,2.50274 9.99414,5.47578 13.59707,8.6c3.60293,3.13262 5.64375,6.30723 5.64375,9.09551v12.9h-107.5v-12.9c0,-2.78828 2.04082,-5.96289 5.64375,-9.09551c3.60293,-3.12422 8.5832,-6.09726 13.59707,-8.6c7.0127,-3.51055 13.85742,-6.04687 17.45195,-7.29824zM38.7,139.75c-1.18418,0 -2.15,0.96582 -2.15,2.15c0,1.18418 0.96582,2.15 2.15,2.15c1.18418,0 2.15,-0.96582 2.15,-2.15c0,-1.18418 -0.96582,-2.15 -2.15,-2.15zM47.3,139.75c-1.18418,0 -2.15,0.96582 -2.15,2.15c0,1.18418 0.96582,2.15 2.15,2.15c1.18418,0 2.15,-0.96582 2.15,-2.15c0,-1.18418 -0.96582,-2.15 -2.15,-2.15zM55.9,139.75c-1.18418,0 -2.15,0.96582 -2.15,2.15c0,1.18418 0.96582,2.15 2.15,2.15c1.18418,0 2.15,-0.96582 2.15,-2.15c0,-1.18418 -0.96582,-2.15 -2.15,-2.15zM64.5,139.75c-1.18418,0 -2.15,0.96582 -2.15,2.15c0,1.18418 0.96582,2.15 2.15,2.15c1.18418,0 2.15,-0.96582 2.15,-2.15c0,-1.18418 -0.96582,-2.15 -2.15,-2.15zM73.1,139.75c-1.18418,0 -2.15,0.96582 -2.15,2.15c0,1.18418 0.96582,2.15 2.15,2.15c1.18418,0 2.15,-0.96582 2.15,-2.15c0,-1.18418 -0.96582,-2.15 -2.15,-2.15zM81.7,139.75c-1.18418,0 -2.15,0.96582 -2.15,2.15c0,1.18418 0.96582,2.15 2.15,2.15c1.18418,0 2.15,-0.96582 2.15,-2.15c0,-1.18418 -0.96582,-2.15 -2.15,-2.15zM90.3,139.75c-1.18418,0 -2.15,0.96582 -2.15,2.15c0,1.18418 0.96582,2.15 2.15,2.15c1.18418,0 2.15,-0.96582 2.15,-2.15c0,-1.18418 -0.96582,-2.15 -2.15,-2.15zM98.9,139.75c-1.18418,0 -2.15,0.96582 -2.15,2.15c0,1.18418 0.96582,2.15 2.15,2.15c1.18418,0 2.15,-0.96582 2.15,-2.15c0,-1.18418 -0.96582,-2.15 -2.15,-2.15zM107.5,139.75c-1.18418,0 -2.15,0.96582 -2.15,2.15c0,1.18418 0.96582,2.15 2.15,2.15c1.18418,0 2.15,-0.96582 2.15,-2.15c0,-1.18418 -0.96582,-2.15 -2.15,-2.15zM116.1,139.75c-1.18418,0 -2.15,0.96582 -2.15,2.15c0,1.18418 0.96582,2.15 2.15,2.15c1.18418,0 2.15,-0.96582 2.15,-2.15c0,-1.18418 -0.96582,-2.15 -2.15,-2.15zM124.7,139.75c-1.18418,0 -2.15,0.96582 -2.15,2.15c0,1.18418 0.96582,2.15 2.15,2.15c1.18418,0 2.15,-0.96582 2.15,-2.15c0,-1.18418 -0.96582,-2.15 -2.15,-2.15zM133.3,139.75c-1.18418,0 -2.15,0.96582 -2.15,2.15c0,1.18418 0.96582,2.15 2.15,2.15c1.18418,0 2.15,-0.96582 2.15,-2.15c0,-1.18418 -0.96582,-2.15 -2.15,-2.15z"></path></g>
</g></svg>