<svg xmlns="http://www.w3.org/2000/svg" x="0px" y="0px"
width="20" height="20"
viewBox="0 0 172 172"
style=" fill:#000000;"><g fill="none" fill-rule="nonzero" stroke="none" stroke-width="1" stroke-linecap="butt" stroke-linejoin="miter" stroke-miterlimit="10" stroke-dasharray="" stroke-dashoffset="0" font-family="none" font-weight="none" font-size="none" text-anchor="none" style="mix-blend-mode: normal"><path d="M0,172v-172h172v172z" fill="none"></path><g fill="#ffffff"><path d="M86,6.88c-43.50037,0 -79.12,35.61963 -79.12,79.12c0,43.50037 35.61963,79.12 79.12,79.12c43.50037,0 79.12,-35.61963 79.12,-79.12c0,-43.50037 -35.61963,-79.12 -79.12,-79.12zM86,13.76c39.74763,0 72.24,32.49237 72.24,72.24c0,39.74763 -32.49237,72.24 -72.24,72.24c-39.74763,0 -72.24,-32.49237 -72.24,-72.24c0,-39.74763 32.49237,-72.24 72.24,-72.24zM85.94625,20.22344c-0.91235,0.01424 -1.78168,0.39033 -2.41673,1.04554c-0.63505,0.65521 -0.9838,1.53586 -0.96952,2.44821v7.08156c-0.01754,1.24059 0.63425,2.39452 1.7058,3.01993c1.07155,0.62541 2.39684,0.62541 3.46839,0c1.07155,-0.62541 1.72335,-1.77935 1.7058,-3.01993v-7.08156c0.01457,-0.93099 -0.34884,-1.82813 -1.00723,-2.48652c-0.65839,-0.65839 -1.55553,-1.0218 -2.48652,-1.00723zM54.67047,28.55469c-1.21252,0.067 -2.29991,0.76827 -2.86112,1.84519c-0.56121,1.07691 -0.5131,2.36993 0.12658,3.40216l3.69531,6.1611c0.62428,1.07096 1.77644,1.72326 3.01597,1.7075c1.23953,-0.01576 2.37473,-0.69714 2.97158,-1.78363c0.59685,-1.08649 0.56304,-2.41005 -0.08849,-3.46465l-3.69531,-6.1611c-0.65004,-1.11864 -1.87271,-1.778 -3.16453,-1.70656zM117.22875,28.55469c-1.25629,-0.03343 -2.43085,0.62082 -3.06375,1.70656l-3.69531,6.1611c-0.65154,1.0546 -0.68534,2.37817 -0.08849,3.46465c0.59685,1.08649 1.73206,1.76787 2.97158,1.78363c1.23953,0.01576 2.39169,-0.63654 3.01597,-1.7075l3.69531,-6.1611c0.64705,-1.04733 0.68516,-2.36058 0.09993,-3.44367c-0.58523,-1.08309 -1.70459,-1.77092 -2.93524,-1.80367zM32.19625,51.0625c-1.52244,0.07321 -2.81523,1.13944 -3.17686,2.62011c-0.36163,1.48068 0.29411,3.0228 1.61139,3.78957l6.16109,3.69531c1.05574,0.68257 2.39972,0.73494 3.50537,0.13658c1.10564,-0.59836 1.79687,-1.75216 1.80285,-3.00932c0.00598,-1.25716 -0.67425,-2.41748 -1.77415,-3.02632l-6.16109,-3.69531c-0.58974,-0.36471 -1.27593,-0.54269 -1.96859,-0.51063zM137.69406,51.6c-0.45417,-0.01244 -0.90631,0.0652 -1.33031,0.22844l-54.99969,21.19766c-0.65262,0.25233 -1.21279,0.69765 -1.60578,1.27656c-4.3125,2.29536 -7.51828,6.44982 -7.51828,11.69735c0,7.60173 6.15827,13.76 13.76,13.76c2.37667,0 4.32789,-1.09757 6.26187,-2.12985c0.86647,0.03326 1.71354,-0.26189 2.37172,-0.8264l45.21719,-39.1636c1.07305,-0.9289 1.46556,-2.4214 0.9883,-3.75801c-0.47725,-1.33661 -1.72631,-2.24297 -3.14502,-2.28215zM120.46047,65.33313l-29.92531,25.92094c-0.09481,0.05822 -0.18674,0.121 -0.27547,0.18812c-1.17017,0.90369 -2.57378,1.43781 -4.25969,1.43781c-4.09427,0 -6.88,-2.78573 -6.88,-6.88c0,-3.2436 1.82482,-5.55867 4.57547,-6.47015c0.18072,-0.06148 0.35602,-0.13789 0.52406,-0.22844zM24.08,82.19719c-1.24059,-0.01754 -2.39452,0.63425 -3.01993,1.7058c-0.62541,1.07155 -0.62541,2.39684 0,3.46839c0.62541,1.07155 1.77935,1.72335 3.01993,1.7058h7.08828c1.24059,0.01754 2.39452,-0.63425 3.01993,-1.7058c0.62541,-1.07155 0.62541,-2.39684 0,-3.46839c-0.62541,-1.07155 -1.77935,-1.72335 -3.01993,-1.7058zM140.83172,82.19719c-1.24059,-0.01754 -2.39452,0.63425 -3.01993,1.7058c-0.62541,1.07155 -0.62541,2.39684 0,3.46839c0.62541,1.07155 1.77935,1.72335 3.01993,1.7058h7.08828c1.24059,0.01754 2.39452,-0.63425 3.01993,-1.7058c0.62541,-1.07155 0.62541,-2.39684 0,-3.46839c-0.62541,-1.07155 -1.77935,-1.72335 -3.01993,-1.7058zM38.65297,109.58953c-0.65638,-0.01084 -1.30215,0.16634 -1.8611,0.51062l-6.16109,3.70203c-1.07096,0.62428 -1.72326,1.77644 -1.7075,3.01597c0.01576,1.23953 0.69714,2.37474 1.78363,2.97159c1.08649,0.59685 2.41006,0.56304 3.46466,-0.0885l6.16109,-3.70203c1.33195,-0.77891 1.9824,-2.34935 1.59126,-3.84192c-0.39114,-1.49258 -1.72818,-2.54219 -3.27095,-2.56776zM133.24625,109.58953c-1.52479,0.06779 -2.82263,1.13209 -3.18769,2.61408c-0.36506,1.48199 0.28994,3.02734 1.60878,3.7956l6.16109,3.70203c1.0546,0.65154 2.37817,0.68534 3.46465,0.08849c1.08649,-0.59685 1.76787,-1.73206 1.78363,-2.97158c0.01576,-1.23953 -0.63654,-2.39169 -1.7075,-3.01597l-6.16109,-3.70203c-0.58783,-0.36339 -1.27148,-0.54133 -1.96188,-0.51062z"></path></g></g></svg>