<svg xmlns="http://www.w3.org/2000/svg" x="0px" y="0px"
width="48" height="48"
viewBox="0 0 172 172"
style=" fill:#000000;"><g fill="none" fill-rule="nonzero" stroke="none" stroke-width="1" stroke-linecap="butt" stroke-linejoin="miter" stroke-miterlimit="10" stroke-dasharray="" stroke-dashoffset="0" font-family="none" font-weight="none" font-size="none" text-anchor="none" style="mix-blend-mode: normal"><path d="M0,172v-172h172v172z" fill="none"></path><g fill="#e67e22"><path d="M10.39167,60.91667l46.94167,-39.41667v78.83333zM39.41667,118.25h14.33333v28.66667h-14.33333zM17.91667,118.25h14.33333v28.66667h-14.33333zM60.91667,118.25h14.33333v28.66667h-14.33333zM82.41667,118.25h14.33333v28.66667h-14.33333z"></path><path d="M111.08333,46.58333h-60.91667v28.66667h60.91667c11.825,0 21.5,9.675 21.5,21.5c0,11.825 -9.675,21.5 -21.5,21.5h-7.16667v28.66667h7.16667c27.59167,0 50.16667,-22.575 50.16667,-50.16667c0,-27.59167 -22.575,-50.16667 -50.16667,-50.16667z"></path></g></g></svg>