<svg xmlns="http://www.w3.org/2000/svg" x="0px" y="0px"
width="48" height="48"
viewBox="0 0 172 172"
style=" fill:#000000;"><defs><linearGradient x1="53.75717" y1="23.27017" x2="120.34267" y2="152.81842" gradientUnits="userSpaceOnUse" id="color-1_TqcYb0aMdR4c_gr1"><stop offset="0" stop-color="#33d7f0"></stop><stop offset="1" stop-color="#0083c4"></stop></linearGradient><linearGradient x1="53.75717" y1="23.27017" x2="120.34267" y2="152.81842" gradientUnits="userSpaceOnUse" id="color-2_TqcYb0aMdR4c_gr2"><stop offset="0" stop-color="#33d7f0"></stop><stop offset="1" stop-color="#0083c4"></stop></linearGradient><linearGradient x1="141.11167" y1="115.76675" x2="151.661" y2="104.97375" gradientUnits="userSpaceOnUse" id="color-3_TqcYb0aMdR4c_gr3"><stop offset="0" stop-color="#000000" stop-opacity="0"></stop><stop offset="1" stop-color="#000000" stop-opacity="0.3"></stop></linearGradient><linearGradient x1="30.88833" y1="56.23325" x2="20.339" y2="67.02625" gradientUnits="userSpaceOnUse" id="color-4_TqcYb0aMdR4c_gr4"><stop offset="0" stop-color="#000000" stop-opacity="0"></stop><stop offset="1" stop-color="#000000" stop-opacity="0.3"></stop></linearGradient><linearGradient x1="69.26583" y1="24.64258" x2="102.73058" y2="147.34667" gradientUnits="userSpaceOnUse" id="color-5_TqcYb0aMdR4c_gr5"><stop offset="0" stop-color="#3498db"></stop><stop offset="1" stop-color="#16528c"></stop></linearGradient></defs><g fill="none" fill-rule="nonzero" stroke="none" stroke-width="1" stroke-linecap="butt" stroke-linejoin="miter" stroke-miterlimit="10" stroke-dasharray="" stroke-dashoffset="0" font-family="none" font-weight="none" font-size="none" text-anchor="none" style="mix-blend-mode: normal"><path d="M0,172v-172h172v172z" fill="none"></path><g><path d="M157.66667,86c0,39.57792 -32.08875,71.66667 -71.66667,71.66667c-39.57792,0 -71.66667,-32.08875 -71.66667,-71.66667c0,-39.57792 32.08875,-71.66667 71.66667,-71.66667c39.57792,0 71.66667,32.08875 71.66667,71.66667z" fill="url(#color-1_TqcYb0aMdR4c_gr1)"></path><path d="M157.66667,86c0,39.57792 -32.08875,71.66667 -71.66667,71.66667c-39.57792,0 -71.66667,-32.08875 -71.66667,-71.66667c0,-39.57792 32.08875,-71.66667 71.66667,-71.66667c39.57792,0 71.66667,32.08875 71.66667,71.66667z" fill="url(#color-2_TqcYb0aMdR4c_gr2)"></path><path d="M147.59033,122.507c3.23933,-5.45025 5.76558,-11.352 7.47483,-17.6085l-8.1485,-8.1485l-12.54167,12.54167z" fill="url(#color-3_TqcYb0aMdR4c_gr3)"></path><path d="M24.40967,49.493c-3.23933,5.45025 -5.76558,11.352 -7.47483,17.6085l8.1485,8.1485l12.54167,-12.54167z" fill="url(#color-4_TqcYb0aMdR4c_gr4)"></path><path d="M142.46258,86h8.03742c0,-35.62192 -28.87808,-64.5 -64.5,-64.5c-31.16425,0 -57.16133,22.09842 -63.18492,51.48175l8.56417,8.56417c1.64475,1.64475 0.48017,4.45408 -1.84183,4.45408h-8.03742c0,35.62192 28.87808,64.5 64.5,64.5c31.16425,0 57.16133,-22.09842 63.18492,-51.48175l-8.56417,-8.56417c-1.64475,-1.64475 -0.48017,-4.45408 1.84183,-4.45408z" fill="url(#color-5_TqcYb0aMdR4c_gr5)"></path><path d="M77.84433,66.82558c0,-3.17842 2.74483,-4.79092 8.15567,-4.79092c7.45333,0 13.61667,2.36858 16.63025,3.78042c1.86692,0.87792 8.45308,2.10342 8.45308,-5.3105v-7.50708c0,-5.49683 -3.31817,-7.38167 -4.74433,-7.93708c-3.46508,-1.34733 -7.79733,-2.19658 -13.17233,-2.58v-4.85542c0,-2.96342 -2.41158,-5.375 -5.375,-5.375h-3.58333c-2.96342,0 -5.375,2.41158 -5.375,5.375v5.27825c-11.524,2.107 -22.747,9.60692 -22.747,25.17292c0,31.1535 38.06933,28.46958 38.06933,35.50725c0,1.27208 0,4.65475 -8.15567,4.65475c-9.47433,0 -17.79125,-3.87717 -20.11325,-5.06325c-1.83108,-0.94242 -8.55342,-1.62325 -8.55342,5.26392v8.53908c0,3.06733 1.83467,5.8265 4.67625,7.03408c4.80525,2.0425 11.00442,3.66933 16.82375,4.45408v5.90892c0,2.96342 2.41158,5.375 5.375,5.375h3.58333c2.96342,0 5.375,-2.41158 5.375,-5.375v-5.94117c16.71267,-2.78067 22.747,-15.26858 22.747,-25.61725c0,-30.42608 -38.06933,-25.59575 -38.06933,-35.991z" fill="#000000" opacity="0.05"></path><path d="M76.05267,66.82558c0,-5.56492 5.84442,-6.58258 9.94733,-6.58258c7.08425,0 13.41242,2.0855 17.38992,3.95242c1.71283,0.80267 5.90175,0.87433 5.90175,-3.69083v-7.50708c0,-4.00617 -2.13208,-5.6975 -3.60125,-6.26725c-3.42925,-1.333 -8.03025,-2.23958 -14.31542,-2.54775v-6.5575c0,-1.978 -1.60533,-3.58333 -3.58333,-3.58333h-3.58333c-1.978,0 -3.58333,1.60533 -3.58333,3.58333v6.83342c-11.34483,1.59817 -22.747,8.49967 -22.747,23.61417c0,28.94258 38.06933,24.95075 38.06933,35.50725c0,2.84875 -1.41183,6.44642 -9.94733,6.44642c-9.21633,0 -17.49025,-3.50092 -20.92667,-5.26033c-1.68058,-0.86358 -5.94833,-0.63425 -5.94833,3.66933v8.54267c0,2.35425 1.41183,4.46125 3.58692,5.38575c5.10267,2.16792 11.82142,3.8485 17.91308,4.4935v7.51783c0,1.978 1.60533,3.58333 3.58333,3.58333h3.58333c1.978,0 3.58333,-1.60533 3.58333,-3.58333v-7.525c16.70908,-2.08908 22.747,-13.92483 22.747,-24.037c0,-28.10408 -38.06933,-23.17342 -38.06933,-35.98742z" fill="#000000" opacity="0.07"></path><path d="M112.33033,102.813c0,-25.78567 -38.06933,-20.75108 -38.06933,-35.98742c0,-7.955 8.94042,-8.37425 11.739,-8.37425c6.71875,0 13.20458,1.80242 18.14958,4.12083c1.55875,0.73458 3.35042,-0.34758 3.35042,-2.06758v-7.50708c0,-2.5155 -0.946,-4.00975 -2.45817,-4.59742c-3.38983,-1.31867 -8.25958,-2.279 -15.4585,-2.51908v-8.256c0,-0.989 -0.80267,-1.79167 -1.79167,-1.79167h-3.58333c-0.989,0 -1.79167,0.80267 -1.79167,1.79167v8.39217c-11.16567,1.09292 -22.747,7.39242 -22.747,22.059c0,26.73167 38.06933,21.43192 38.06933,35.50725c0,4.42542 -2.82725,8.23808 -11.739,8.23808c-8.95833,0 -17.18925,-3.12467 -21.74367,-5.45742c-1.53367,-0.78475 -3.33967,0.35117 -3.33967,2.07117v8.54267c0,1.63758 0.98542,3.096 2.494,3.73383c5.3965,2.29333 12.63842,4.02767 19.006,4.5365v9.12675c0,0.989 0.80267,1.79167 1.79167,1.79167h3.58333c0.989,0 1.79167,-0.80267 1.79167,-1.79167v-9.10525c16.70908,-1.3975 22.747,-12.58108 22.747,-22.45675z" fill="#ffffff"></path></g></g></svg>