<svg xmlns="http://www.w3.org/2000/svg" x="0px" y="0px"
width="48" height="48"
viewBox="0 0 172 172"
style=" fill:#000000;"><g fill="none" fill-rule="nonzero" stroke="none" stroke-width="1" stroke-linecap="butt" stroke-linejoin="miter" stroke-miterlimit="10" stroke-dasharray="" stroke-dashoffset="0" font-family="none" font-weight="none" font-size="none" text-anchor="none" style="mix-blend-mode: normal"><path d="M0,172v-172h172v172z" fill="none"></path><g><path d="M126.58125,163.9375h-86.5375c-2.76141,0.01526 -5.08509,-2.06444 -5.375,-4.81062l-12.9,-124.18938h118.25z" fill="#666666"></path><path d="M35.20625,34.9375l13.4375,129h10.75l-13.4375,-129z" fill="#e67e22"></path><path d="M102.39375,34.9375l-5.375,129h29.5625l13.4375,-129z" fill="#34495e"></path><path d="M123.625,131.6875c-10.38986,0 -18.8125,8.42264 -18.8125,18.8125c0,10.38986 8.42264,18.8125 18.8125,18.8125c10.38986,0 18.8125,-8.42264 18.8125,-18.8125c0,-10.38986 -8.42264,-18.8125 -18.8125,-18.8125z" fill="#c2cde7"></path><path d="M145.125,23.81125v0c-1.53234,-6.15513 -7.09495,-10.44947 -13.4375,-10.37375h-95.08375c-1.012,0.00307 -1.93648,0.57437 -2.39187,1.47813l-4.64937,9.27188h-7.49812c-2.69902,-0.06637 -5.05607,1.81474 -5.59,4.46125c-0.26944,1.56184 0.16417,3.16299 1.18491,4.37544c1.02074,1.21245 2.52455,1.91261 4.10947,1.91331h118.25c2.96853,0 5.375,-2.40647 5.375,-5.375c0,-2.20375 -0.16125,-4.11187 -0.215,-4.91812c0.00371,-0.27868 -0.01426,-0.55723 -0.05375,-0.83313z" fill="#f9dd8f"></path><path d="M70.14375,145.125c-1.48427,0 -2.6875,1.20323 -2.6875,2.6875v5.375c0,1.48427 1.20323,2.6875 2.6875,2.6875c1.48427,0 2.6875,-1.20323 2.6875,-2.6875v-5.375c0,-1.48427 -1.20323,-2.6875 -2.6875,-2.6875zM83.58125,145.125c-1.48427,0 -2.6875,1.20323 -2.6875,2.6875v5.375c0,1.48427 1.20323,2.6875 2.6875,2.6875c1.48427,0 2.6875,-1.20323 2.6875,-2.6875v-5.375c0,-1.48427 -1.20323,-2.6875 -2.6875,-2.6875zM97.01875,145.125c-1.48427,0 -2.6875,1.20323 -2.6875,2.6875v5.375c0,1.48427 1.20323,2.6875 2.6875,2.6875c1.48427,0 2.6875,-1.20323 2.6875,-2.6875v-5.375c0,-1.48427 -1.20323,-2.6875 -2.6875,-2.6875zM43.26875,155.875c1.48427,0 2.6875,-1.20323 2.6875,-2.6875v-5.375c0,-1.48427 -1.20323,-2.6875 -2.6875,-2.6875c-1.48427,0 -2.6875,1.20323 -2.6875,2.6875v5.375c0,1.48427 1.20323,2.6875 2.6875,2.6875zM56.70625,145.125c-1.48427,0 -2.6875,1.20323 -2.6875,2.6875v5.375c0,1.48427 1.20323,2.6875 2.6875,2.6875c1.48427,0 2.6875,-1.20323 2.6875,-2.6875v-5.375c0,-1.48427 -1.20323,-2.6875 -2.6875,-2.6875zM123.625,145.125c-2.96853,0 -5.375,2.40647 -5.375,5.375c0,2.96853 2.40647,5.375 5.375,5.375c2.96853,0 5.375,-2.40647 5.375,-5.375c0,-2.96853 -2.40647,-5.375 -5.375,-5.375z" fill="#e67e22"></path><path d="M145.71625,35.26c1.51244,-1.51056 2.36312,-3.55991 2.365,-5.6975c0,-2.2575 -0.16125,-4.21937 -0.24188,-5.18688c-0.04007,-0.40811 -0.11195,-0.81246 -0.215,-1.20937v0c-1.81076,-7.32039 -8.39594,-12.45083 -15.93687,-12.41625h-95.08375c-2.03966,0.00108 -3.90298,1.15654 -4.81063,2.98313l-3.89687,7.76687h-5.83187c-4.01604,-0.05873 -7.49471,2.77406 -8.25062,6.71875c-0.65652,3.90619 1.62164,7.71071 5.375,8.97625l12.73875,122.20063c0.42844,4.12461 3.91576,7.25157 8.0625,7.22938h69.47187c6.3037,5.65092 15.33677,7.07658 23.07444,3.64176c7.73767,-3.43482 12.7394,-11.09064 12.77661,-19.55634c0.03722,-8.4657 -4.89701,-16.16521 -12.60418,-19.66792l9.72875,-93.8475c1.23172,-0.37401 2.35597,-1.03751 3.27875,-1.935zM22.06438,26.875h9.16438v-0.18812c0.32495,0.1285 0.67184,0.19241 1.02125,0.18812h83.3125c1.48427,0 2.6875,-1.20323 2.6875,-2.6875c0,-1.48427 -1.20323,-2.6875 -2.6875,-2.6875h-81.64625l2.6875,-5.375h95.08375c5.00634,-0.0898 9.43443,3.23127 10.75,8.0625v0.215c0.01009,0.13419 0.01009,0.26894 0,0.40313c0,0.88687 0.215,2.6875 0.215,4.67625c-0.00298,0.71822 -0.29333,1.40537 -0.80625,1.90812c-0.49619,0.50636 -1.17237,0.79615 -1.88125,0.80625h-118.19625c-0.80509,0.01317 -1.57367,-0.33533 -2.09424,-0.94961c-0.52058,-0.61428 -0.7383,-1.42961 -0.59326,-2.22164c0.36471,-1.32925 1.60676,-2.22442 2.98313,-2.15zM139.75,150.5c0,8.90559 -7.21941,16.125 -16.125,16.125c-8.90559,0 -16.125,-7.21941 -16.125,-16.125c0,-8.90559 7.21941,-16.125 16.125,-16.125c8.90559,0 16.125,7.21941 16.125,16.125zM127.495,129.37625c-8.23262,-1.49008 -16.58202,1.93094 -21.40224,8.7692c-4.82023,6.83826 -5.2358,15.85176 -1.06526,23.10455h-64.98375c-1.38535,0.00694 -2.54898,-1.04033 -2.6875,-2.41875l-12.60437,-121.20625h112.31063z" fill="#e67e22"></path><path d="M72.5625,53.75h16.125c1.48427,0 2.6875,-1.20323 2.6875,-2.6875c0,-1.48427 -1.20323,-2.6875 -2.6875,-2.6875h-16.125c-1.48427,0 -2.6875,1.20323 -2.6875,2.6875c0,1.48427 1.20323,2.6875 2.6875,2.6875zM126.3125,26.875h8.0625c1.48427,0 2.6875,-1.20323 2.6875,-2.6875c0,-1.48427 -1.20323,-2.6875 -2.6875,-2.6875h-8.0625c-1.48427,0 -2.6875,1.20323 -2.6875,2.6875c0,1.48427 1.20323,2.6875 2.6875,2.6875z" fill="#e67e22"></path><path d="M60.97938,118.25h6.47687c1.48427,0 2.6875,-1.20323 2.6875,-2.6875c0,-1.48427 -1.20323,-2.6875 -2.6875,-2.6875h-6.47687c-0.99075,0.0048 -1.90378,-0.5359 -2.37585,-1.40697c-0.47206,-0.87107 -0.42658,-1.93122 0.11835,-2.75866l9.27188,-14.19l0.99438,5.16c0.24792,1.28223 1.38174,2.20062 2.6875,2.17688h0.51062c1.45303,-0.28435 2.40239,-1.69036 2.12313,-3.14438l-2.20375,-11.47562c-0.1456,-0.73825 -0.59402,-1.38164 -1.23625,-1.77375v0c-0.76924,-0.48133 -1.72944,-0.54197 -2.55312,-0.16125l-10.75,2.06938c-1.48427,0.28201 -2.45889,1.71386 -2.17688,3.19812c0.28201,1.48427 1.71386,2.45889 3.19812,2.17688l5.02563,-0.9675l-9.27187,14.19c-1.50792,2.45268 -1.59351,5.52333 -0.22455,8.05619c1.36897,2.53286 3.9847,4.1435 6.86267,4.22568zM87.63938,75.41125c-1.47507,-2.29917 -4.01399,-3.69507 -6.74563,-3.70875c-2.71976,-0.04017 -5.27644,1.29375 -6.79937,3.5475l-2.52625,3.87c-0.67661,1.2316 -0.29021,2.77652 0.88653,3.54457c1.17674,0.76805 2.74652,0.49992 3.60159,-0.6152l2.52625,-3.87c0.4644,-0.7964 1.3372,-1.26397 2.2575,-1.20937c0.91373,0.00152 1.76409,0.46719 2.2575,1.23625l8.89562,13.8675l-5.375,-1.04812c-1.48427,-0.28201 -2.91611,0.69261 -3.19812,2.17687c-0.28201,1.48427 0.69261,2.91611 2.17687,3.19813l11.47562,2.20375h0.51062c1.30576,0.02375 2.43958,-0.89465 2.6875,-2.17688l2.20375,-11.47563c0.28201,-1.48427 -0.69261,-2.91611 -2.17687,-3.19812c-1.48427,-0.28201 -2.91611,0.69261 -3.19813,2.17687l-0.9675,4.75687zM100.53938,100.53938c-1.24494,0.80278 -1.60554,2.46157 -0.80625,3.70875l2.87562,4.48812c0.53021,0.82641 0.56754,1.87619 0.09737,2.73817c-0.47017,0.86198 -1.373,1.39895 -2.35487,1.40058h-17.3075l3.655,-3.655c0.76695,-0.6568 1.10102,-1.68807 0.86486,-2.66981c-0.23616,-0.98175 -1.00268,-1.74827 -1.98443,-1.98443c-0.98175,-0.23616 -2.01302,0.09792 -2.66981,0.86486l-8.25062,8.25063c-1.04201,1.04823 -1.04201,2.74115 0,3.78937l8.25063,8.25063c0.6568,0.76695 1.68807,1.10102 2.66981,0.86486c0.98175,-0.23616 1.74827,-1.00268 1.98443,-1.98443c0.23616,-0.98175 -0.09792,-2.01302 -0.86486,-2.66981l-3.655,-3.68188h17.33437c2.95043,0.00492 5.66791,-1.60214 7.08505,-4.18995c1.41714,-2.58781 1.30757,-5.74302 -0.28567,-8.2263l-2.9025,-4.48813c-0.38578,-0.60546 -0.99777,-1.03139 -1.69953,-1.18285c-0.70176,-0.15146 -1.43494,-0.01585 -2.0361,0.3766z" fill="#ffffff"></path></g></g></svg>