<svg xmlns="http://www.w3.org/2000/svg" x="0px" y="0px"
width="20" height="20"
viewBox="0 0 172 172"
style=" fill:#000000;"><g fill="none" fill-rule="nonzero" stroke="none" stroke-width="1" stroke-linecap="butt" stroke-linejoin="miter" stroke-miterlimit="10" stroke-dasharray="" stroke-dashoffset="0" font-family="none" font-weight="none" font-size="none" text-anchor="none" style="mix-blend-mode: normal"><path d="M0,172v-172h172v172z" fill="none"></path><g fill="#ffffff"><path d="M43,14.33333c-7.90483,0 -14.33333,6.4285 -14.33333,14.33333v114.66667c0,7.90483 6.4285,14.33333 14.33333,14.33333h58.5651l-14.33333,-14.33333h-44.23177v-114.66667h50.16667v35.83333h35.83333v35.83333h14.33333v-43l-43,-43zM65.75977,71.66667l13.50749,26.49707l-14.76725,26.58105h12.44368l8.0485,-17.16081c0.5375,-1.64117 0.89864,-2.87831 1.0778,-3.69531h0.11198c0.29383,1.70567 0.65082,2.91817 0.95182,3.52734l7.97851,17.30078h12.3877l-14.29134,-26.74902l13.88542,-26.30111h-11.61783l-7.37663,15.74707c-0.71667,2.0425 -1.19807,3.61547 -1.44173,4.63314h-0.18197c-0.41567,-1.70567 -0.81342,-3.20999 -1.34375,-4.50716l-6.63476,-15.87305zM129,114.66667v28.66667h-21.5l28.66667,28.66667l28.66667,-28.66667h-21.5v-28.66667z"></path></g></g></svg>