<svg xmlns="http://www.w3.org/2000/svg" x="0px" y="0px"
width="20" height="20"
viewBox="0 0 172 172"
style=" fill:#000000;"><g fill="none" fill-rule="nonzero" stroke="none" stroke-width="1" stroke-linecap="butt" stroke-linejoin="miter" stroke-miterlimit="10" stroke-dasharray="" stroke-dashoffset="0" font-family="none" font-weight="none" font-size="none" text-anchor="none" style="mix-blend-mode: normal">
<path d="M0,172v-172h172v172z" fill="none"></path><g fill="#ffffff"><path d="M86.01575,5.375c-0.68531,0 -1.37083,0.26073 -1.8949,0.7821l-29.5625,29.5625c-1.04275,1.04812 -1.04275,2.74167 0,3.78979l10.75,10.75c1.04812,1.04275 2.74167,1.04275 3.7898,0l6.1781,-5.91565v14.78125h-56.46375c-4.45319,0 -8.0625,3.60931 -8.0625,8.0625v75.25c0,4.45319 3.60931,8.0625 8.0625,8.0625h134.375c4.45319,0 8.0625,-3.60931 8.0625,-8.0625v-75.25c0,-4.45319 -3.60931,-8.0625 -8.0625,-8.0625h-56.4375v-16.125l6.18335,7.2594c1.04812,1.04275 2.74167,1.04275 3.7898,0l10.75,-10.75c1.04275,-1.04812 1.04275,-2.74167 0,-3.78979l-29.5625,-29.5625c-0.52406,-0.52137 -1.20959,-0.7821 -1.8949,-0.7821zM86.02625,11.85229l25.7727,25.77795l-6.9602,6.96021l-8.83936,-8.84461c-1.04544,-1.0535 -2.74679,-1.06118 -3.80029,-0.01575c-0.50525,0.50256 -0.79516,1.18796 -0.79785,1.90015v69.875l-10.77625,-0.00525v-69.875c0.00806,-1.4835 -1.16201,-2.69518 -2.64551,-2.70325c-0.72294,-0.00538 -1.41321,0.28454 -1.92114,0.79785l-8.8446,8.87085l-6.96021,-6.96021zM18.8125,64.5h56.46375v45.69275c0,1.4835 1.17775,2.68225 2.66125,2.68225h16.125c1.4835,0 2.6875,-1.204 2.6875,-2.6875v-45.6875h56.4375c1.4835,0 2.6875,1.204 2.6875,2.6875v75.25c0,1.4835 -1.204,2.6875 -2.6875,2.6875h-134.375c-1.4835,0 -2.6875,-1.204 -2.6875,-2.6875v-75.25c0,-1.4835 1.204,-2.6875 2.6875,-2.6875zM26.875,129c-1.4835,0 -2.6875,1.204 -2.6875,2.6875v5.375c0,1.4835 1.204,2.6875 2.6875,2.6875c1.4835,0 2.6875,-1.204 2.6875,-2.6875v-5.375c0,-1.4835 -1.204,-2.6875 -2.6875,-2.6875zM40.3125,129c-1.4835,0 -2.6875,1.204 -2.6875,2.6875v5.375c0,1.4835 1.204,2.6875 2.6875,2.6875c1.4835,0 2.6875,-1.204 2.6875,-2.6875v-5.375c0,-1.4835 -1.204,-2.6875 -2.6875,-2.6875zM53.75,129c-1.4835,0 -2.6875,1.204 -2.6875,2.6875v5.375c0,1.4835 1.204,2.6875 2.6875,2.6875c1.4835,0 2.6875,-1.204 2.6875,-2.6875v-5.375c0,-1.4835 -1.204,-2.6875 -2.6875,-2.6875zM67.1875,129c-1.4835,0 -2.6875,1.204 -2.6875,2.6875v5.375c0,1.4835 1.204,2.6875 2.6875,2.6875c1.4835,0 2.6875,-1.204 2.6875,-2.6875v-5.375c0,-1.4835 -1.204,-2.6875 -2.6875,-2.6875zM80.625,129c-1.4835,0 -2.6875,1.204 -2.6875,2.6875v5.375c0,1.4835 1.204,2.6875 2.6875,2.6875c1.4835,0 2.6875,-1.204 2.6875,-2.6875v-5.375c0,-1.4835 -1.204,-2.6875 -2.6875,-2.6875zM94.0625,129c-1.4835,0 -2.6875,1.204 -2.6875,2.6875v5.375c0,1.4835 1.204,2.6875 2.6875,2.6875c1.4835,0 2.6875,-1.204 2.6875,-2.6875v-5.375c0,-1.4835 -1.204,-2.6875 -2.6875,-2.6875zM107.5,129c-1.4835,0 -2.6875,1.204 -2.6875,2.6875v5.375c0,1.4835 1.204,2.6875 2.6875,2.6875c1.4835,0 2.6875,-1.204 2.6875,-2.6875v-5.375c0,-1.4835 -1.204,-2.6875 -2.6875,-2.6875zM120.9375,129c-1.4835,0 -2.6875,1.204 -2.6875,2.6875v5.375c0,1.4835 1.204,2.6875 2.6875,2.6875c1.4835,0 2.6875,-1.204 2.6875,-2.6875v-5.375c0,-1.4835 -1.204,-2.6875 -2.6875,-2.6875zM134.375,129c-1.4835,0 -2.6875,1.204 -2.6875,2.6875v5.375c0,1.4835 1.204,2.6875 2.6875,2.6875c1.4835,0 2.6875,-1.204 2.6875,-2.6875v-5.375c0,-1.4835 -1.204,-2.6875 -2.6875,-2.6875zM147.8125,129c-1.4835,0 -2.6875,1.204 -2.6875,2.6875v5.375c0,1.4835 1.204,2.6875 2.6875,2.6875c1.4835,0 2.6875,-1.204 2.6875,-2.6875v-5.375c0,-1.4835 -1.204,-2.6875 -2.6875,-2.6875z"></path></g>
</g></svg>