<svg xmlns="http://www.w3.org/2000/svg" x="0px" y="0px"
width="20" height="20"
viewBox="0 0 172 172"
style=" fill:#000000;"><g fill="none" fill-rule="nonzero" stroke="none" stroke-width="1" stroke-linecap="butt" stroke-linejoin="miter" stroke-miterlimit="10" stroke-dasharray="" stroke-dashoffset="0" font-family="none" font-weight="none" font-size="none" text-anchor="none" style="mix-blend-mode: normal">
<path d="M0,172v-172h172v172z" fill="none"></path><g fill="#ffffff"><path d="M30.315,6.88c-1.63937,0.30906 -2.82187,1.76031 -2.795,3.44v27.52c0,0.1075 0,0.215 0,0.3225v85.6775c0,5.6975 -4.6225,10.32 -10.32,10.32c-0.1075,0 -0.215,0 -0.3225,0c-5.53625,-0.17469 -9.9975,-4.74344 -9.9975,-10.32v-75.68h13.76v-6.88h-17.2c-1.89469,0 -3.44,1.54531 -3.44,3.44v79.12c0,9.04344 7.13531,16.46094 16.0175,17.0925c0.04031,0 0.06719,0 0.1075,0c0.06719,0.04031 0.14781,0.08063 0.215,0.1075c0.29563,0.01344 0.56438,0 0.86,0h68.8c1.23625,0.01344 2.39188,-0.63156 3.02344,-1.70656c0.61813,-1.075 0.61813,-2.39187 0,-3.46687c-0.63156,-1.075 -1.78719,-1.72 -3.02344,-1.70656h-55.1475c2.20375,-2.88906 3.5475,-6.43656 3.5475,-10.32v-85.4625c0.01344,-0.17469 0.01344,-0.36281 0,-0.5375v-24.08h116.96v72.24c-0.01344,1.23625 0.63156,2.39188 1.70656,3.02344c1.075,0.61813 2.39187,0.61813 3.46687,0c1.075,-0.63156 1.72,-1.78719 1.70656,-3.02344v-75.68c0,-1.89469 -1.54531,-3.44 -3.44,-3.44h-123.84c-0.1075,0 -0.215,0 -0.3225,0c-0.1075,0 -0.215,0 -0.3225,0zM55.04,34.4v6.88h75.68v-6.88zM55.04,48.16v6.88h75.68v-6.88zM55.04,75.68v6.88h34.4v-6.88zM96.32,75.68v6.88h34.4v-6.88zM55.04,89.44v6.88h34.4v-6.88zM96.32,89.44v6.88h6.88l10.32,-6.88zM134.16,92.5575c-20.80125,0 -37.84,17.03875 -37.84,37.84c0,20.80125 17.03875,37.84 37.84,37.84c20.80125,0 37.84,-17.03875 37.84,-37.84c0,-20.80125 -17.03875,-37.84 -37.84,-37.84zM134.16,99.4375c7.26969,0 13.94813,2.55313 19.2425,6.7725l-43.43,43.43c-4.21937,-5.29437 -6.7725,-11.97281 -6.7725,-19.2425c0,-17.03875 13.92125,-30.96 30.96,-30.96zM55.04,103.2v6.88h34.4v-6.88zM158.3475,111.0475c4.25969,5.30781 6.7725,12.05344 6.7725,19.35c0,17.03875 -13.92125,30.96 -30.96,30.96c-7.29656,0 -14.04219,-2.51281 -19.35,-6.7725zM55.04,116.96v6.88h34.4v-6.88z"></path></g>
</g></svg>