<svg xmlns="http://www.w3.org/2000/svg" x="0px" y="0px"
width="20" height="20"
viewBox="0 0 172 172"
style=" fill:#000000;"><g fill="none" fill-rule="nonzero" stroke="none" stroke-width="1" stroke-linecap="butt" stroke-linejoin="miter" stroke-miterlimit="10" stroke-dasharray="" stroke-dashoffset="0" font-family="none" font-weight="none" font-size="none" text-anchor="none" style="mix-blend-mode: normal">
<path d="M0,172v-172h172v172z" fill="none"></path><g fill="#ffffff"><path d="M77.9375,5.375c-1.48022,0 -2.6875,1.20728 -2.6875,2.6875v34.9375h-56.4375c-4.44067,0 -8.0625,3.62183 -8.0625,8.0625v91.375c0,4.44067 3.62183,8.0625 8.0625,8.0625h134.375c4.44067,0 8.0625,-3.62183 8.0625,-8.0625v-91.375c0,-4.44067 -3.62183,-8.0625 -8.0625,-8.0625h-56.4375v-34.9375c0,-1.48022 -1.20728,-2.6875 -2.6875,-2.6875zM80.625,10.75h10.75v69.875c0,1.0813 0.66138,2.06811 1.65869,2.47754c1.00781,0.41992 2.1626,0.18897 2.92895,-0.57739l8.84985,-8.84985l6.94971,6.94971l-25.76221,25.76221l-25.76221,-25.76221l6.94971,-6.94971l8.84985,8.84985c0.76636,0.76636 1.92114,0.99732 2.92896,0.57739c0.99731,-0.40942 1.65869,-1.39624 1.65869,-2.47754zM18.8125,48.375h56.4375v25.76221l-6.16235,-6.16235c-1.0498,-1.0498 -2.75049,-1.0498 -3.80029,0l-10.75,10.75c-0.5249,0.5249 -0.78735,1.20728 -0.78735,1.90015c0,0.69287 0.26245,1.37524 0.78735,1.90015l29.5625,29.5625c1.0498,1.0498 2.75049,1.0498 3.80029,0l29.5625,-29.5625c1.0498,-1.0498 1.0498,-2.75049 0,-3.80029l-10.75,-10.75c-1.0498,-1.0498 -2.75049,-1.0498 -3.80029,0l-6.16235,6.16235v-25.76221h56.4375c1.48022,0 2.6875,1.20728 2.6875,2.6875v91.375c0,1.48022 -1.20728,2.6875 -2.6875,2.6875h-134.375c-1.48022,0 -2.6875,-1.20728 -2.6875,-2.6875v-91.375c0,-1.48022 1.20728,-2.6875 2.6875,-2.6875zM26.875,129c-1.48022,0 -2.6875,1.19678 -2.6875,2.6875v5.375c0,1.49072 1.20728,2.6875 2.6875,2.6875c1.48022,0 2.6875,-1.19678 2.6875,-2.6875v-5.375c0,-1.49072 -1.20728,-2.6875 -2.6875,-2.6875zM40.3125,129c-1.48022,0 -2.6875,1.19678 -2.6875,2.6875v5.375c0,1.49072 1.20728,2.6875 2.6875,2.6875c1.48022,0 2.6875,-1.19678 2.6875,-2.6875v-5.375c0,-1.49072 -1.20728,-2.6875 -2.6875,-2.6875zM53.75,129c-1.48022,0 -2.6875,1.19678 -2.6875,2.6875v5.375c0,1.49072 1.20728,2.6875 2.6875,2.6875c1.48022,0 2.6875,-1.19678 2.6875,-2.6875v-5.375c0,-1.49072 -1.20728,-2.6875 -2.6875,-2.6875zM67.1875,129c-1.48022,0 -2.6875,1.19678 -2.6875,2.6875v5.375c0,1.49072 1.20728,2.6875 2.6875,2.6875c1.48022,0 2.6875,-1.19678 2.6875,-2.6875v-5.375c0,-1.49072 -1.20728,-2.6875 -2.6875,-2.6875zM80.625,129c-1.48022,0 -2.6875,1.19678 -2.6875,2.6875v5.375c0,1.49072 1.20728,2.6875 2.6875,2.6875c1.48022,0 2.6875,-1.19678 2.6875,-2.6875v-5.375c0,-1.49072 -1.20728,-2.6875 -2.6875,-2.6875zM94.0625,129c-1.48022,0 -2.6875,1.19678 -2.6875,2.6875v5.375c0,1.49072 1.20728,2.6875 2.6875,2.6875c1.48022,0 2.6875,-1.19678 2.6875,-2.6875v-5.375c0,-1.49072 -1.20728,-2.6875 -2.6875,-2.6875zM107.5,129c-1.48022,0 -2.6875,1.19678 -2.6875,2.6875v5.375c0,1.49072 1.20728,2.6875 2.6875,2.6875c1.48022,0 2.6875,-1.19678 2.6875,-2.6875v-5.375c0,-1.49072 -1.20728,-2.6875 -2.6875,-2.6875zM120.9375,129c-1.48022,0 -2.6875,1.19678 -2.6875,2.6875v5.375c0,1.49072 1.20728,2.6875 2.6875,2.6875c1.48022,0 2.6875,-1.19678 2.6875,-2.6875v-5.375c0,-1.49072 -1.20728,-2.6875 -2.6875,-2.6875zM134.375,129c-1.48022,0 -2.6875,1.19678 -2.6875,2.6875v5.375c0,1.49072 1.20728,2.6875 2.6875,2.6875c1.48022,0 2.6875,-1.19678 2.6875,-2.6875v-5.375c0,-1.49072 -1.20728,-2.6875 -2.6875,-2.6875zM147.8125,129c-1.48022,0 -2.6875,1.19678 -2.6875,2.6875v5.375c0,1.49072 1.20728,2.6875 2.6875,2.6875c1.48022,0 2.6875,-1.19678 2.6875,-2.6875v-5.375c0,-1.49072 -1.20728,-2.6875 -2.6875,-2.6875z"></path></g>
</g></svg>