<svg xmlns="http://www.w3.org/2000/svg" x="0px" y="0px"
width="20" height="20"
viewBox="0 0 172 172"
style=" fill:#000000;"><g fill="none" fill-rule="nonzero" stroke="none" stroke-width="1" stroke-linecap="butt" stroke-linejoin="miter" stroke-miterlimit="10" stroke-dasharray="" stroke-dashoffset="0" font-family="none" font-weight="none" font-size="none" text-anchor="none" style="mix-blend-mode: normal"><path d="M0,172v-172h172v172z" fill="none"></path><g fill="#000000"><path d="M115.3475,0c-11.85187,0 -22.97812,4.81063 -32.035,13.8675c-10.29312,10.27969 -14.92906,22.84375 -13.545,36.4425c1.23625,12.06688 7.43094,24.30844 17.5225,34.4c11.46219,11.48906 25.30281,17.845 38.915,17.845c11.85188,0 22.87063,-4.81062 31.9275,-13.8675c10.29313,-10.27969 15.03656,-22.95125 13.6525,-36.55c-1.22281,-12.06687 -7.525,-24.20094 -17.63,-34.2925c-11.48906,-11.48906 -25.20875,-17.845 -38.8075,-17.845zM116.53,23.1125c7.44438,0 15.23813,3.72219 21.93,10.4275c5.95281,5.93938 9.63469,12.87313 10.32,19.565c0.71219,6.96063 -1.76031,13.49125 -7.2025,18.92c-4.86437,4.86438 -10.52156,7.4175 -16.6625,7.4175c-7.44437,0 -15.22469,-3.73562 -21.93,-10.4275c-5.95281,-5.93937 -9.63469,-12.87312 -10.32,-19.565c-0.71219,-6.96062 1.88125,-13.59875 7.31,-19.0275c4.86438,-4.86437 10.41406,-7.31 16.555,-7.31zM73.4225,78.5825l-69.23,69.3375c-2.67406,2.67406 -4.1925,6.22156 -4.1925,9.9975c0,3.77594 1.51844,7.32344 4.1925,9.9975c2.66063,2.66063 6.11406,4.085 9.89,4.085c3.77594,0 7.32344,-1.42437 9.9975,-4.085l69.23,-69.3375c-3.80281,-2.59344 -7.40406,-5.57656 -10.8575,-9.03c-3.44,-3.44 -6.42312,-7.13531 -9.03,-10.965zM20.855,110.51c-3.91031,0 -6.88,2.88906 -9.9975,6.02l-4.73,4.73c-3.14437,3.13094 -6.1275,6.07375 -6.1275,9.9975c0,2.20375 0.98094,4.31344 2.9025,6.235l0.9675,0.9675l24.08,-24.1875l-0.86,-0.86c-1.92156,-1.92156 -4.03125,-2.9025 -6.235,-2.9025z"></path></g></g></svg>