<svg xmlns="http://www.w3.org/2000/svg" x="0px" y="0px"
width="20" height="20"
viewBox="0 0 172 172"
style=" fill:#000000;"><g fill="none" fill-rule="nonzero" stroke="none" stroke-width="1" stroke-linecap="butt" stroke-linejoin="miter" stroke-miterlimit="10" stroke-dasharray="" stroke-dashoffset="0" font-family="none" font-weight="none" font-size="none" text-anchor="none" style="mix-blend-mode: normal"><path d="M0,172v-172h172v172z" fill="none"></path><g fill="#e74c3c"><path d="M86,11.46667c-22.09818,0 -40.13333,18.03515 -40.13333,40.13333v11.46667h-11.46667c-6.33533,0 -11.46667,5.13133 -11.46667,11.46667v68.8c0,6.33533 5.13133,11.46667 11.46667,11.46667h31.04062c-2.9584,-3.88147 -4.77631,-6.9858 -5.47578,-8.25286c-1.74867,-2.8036 -2.63151,-5.811 -2.63151,-8.94714c0,-3.2852 0.96839,-6.42626 2.88906,-9.35026c1.83467,-2.87813 24.10347,-36.51641 60.17761,-36.51641c10.88187,0 20.47947,3.08382 28.66667,7.43542v-24.63542c0,-6.33533 -5.13133,-11.46667 -11.46667,-11.46667h-11.46667v-11.46667c0,-21.37626 -16.99027,-38.59356 -38.09531,-39.71901c-0.64841,-0.26118 -1.33911,-0.4016 -2.03802,-0.41432zM86,22.93333c15.90235,0 28.66667,12.76431 28.66667,28.66667v11.46667h-57.33333v-11.46667c0,-15.90235 12.76431,-28.66667 28.66667,-28.66667zM120.4,103.2c-30.96,0 -50.55859,31.28698 -50.55859,31.28698c-0.602,0.90587 -1.04141,1.93769 -1.04141,3.11302c0,1.18107 0.44487,2.21835 1.05261,3.12422c0,0 16.14739,31.27578 50.54739,31.27578c34.4,0 50.5362,-31.26458 50.5362,-31.26458c0.61347,-0.9116 1.0638,-1.94862 1.0638,-3.13542c0,-1.18107 -0.43914,-2.21262 -1.05261,-3.12422c0,0 -19.58739,-31.27578 -50.54739,-31.27578zM120.4,114.66667c12.66493,0 22.93333,10.2684 22.93333,22.93333c0,12.66493 -10.2684,22.93333 -22.93333,22.93333c-12.66493,0 -22.93333,-10.2684 -22.93333,-22.93333c0,-12.66493 10.2684,-22.93333 22.93333,-22.93333zM120.4,126.13333c-6.33533,0 -11.46667,5.13133 -11.46667,11.46667c0,6.33533 5.13133,11.46667 11.46667,11.46667c6.33533,0 11.46667,-5.13133 11.46667,-11.46667c0,-6.33533 -5.13133,-11.46667 -11.46667,-11.46667z"></path></g></g></svg>