<svg xmlns="http://www.w3.org/2000/svg" x="0px" y="0px"
width="20" height="20"
viewBox="0 0 172 172"
style=" fill:#000000;"><g fill="none" fill-rule="nonzero" stroke="none" stroke-width="1" stroke-linecap="butt" stroke-linejoin="miter" stroke-miterlimit="10" stroke-dasharray="" stroke-dashoffset="0" font-family="none" font-weight="none" font-size="none" text-anchor="none" style="mix-blend-mode: normal">
<path d="M0,172v-172h172v172z" fill="none"></path><g fill="#ffffff"><path d="M137.47192,0.03149c-1.45923,-0.22046 -2.83447,0.77685 -3.06543,2.24658l-1.96314,12.73413l-39.12622,-4.3252c-3.25439,-0.35693 -6.4563,0.75586 -8.78686,3.08642l-75.16602,75.16602c-4.18872,4.19922 -4.18872,11.02295 0,15.21167l57.01489,57.01489c2.02612,2.02612 4.72412,3.13892 7.60059,3.13892c2.86597,0 5.56396,-1.11279 7.60059,-3.13892l75.17651,-75.18701c2.30957,-2.32007 3.43286,-5.52197 3.07593,-8.78687l-4.26221,-38.58032l13.93091,-0.99732c1.48022,-0.10498 2.59302,-1.38574 2.48804,-2.87647c-0.10498,-1.46973 -1.36475,-2.55102 -2.86597,-2.48804l-14.14087,1.01831l-0.82935,-7.40112c-0.5564,-5.03906 -4.46167,-8.94434 -9.50073,-9.50073l-6.86572,-0.76636l1.93164,-12.50317c0.23096,-1.46973 -0.77685,-2.83447 -2.24658,-3.06543zM92.13086,15.99902c0.19946,0 0.39893,0.0105 0.59839,0.03149l51.33545,5.67944c2.51953,0.28345 4.47217,2.23608 4.75561,4.74512l0.79785,7.19116l-8.073,0.57739c-0.5249,-1.0813 -1.19678,-2.09961 -2.07861,-2.98145c-4.18872,-4.18872 -11.01245,-4.18872 -15.20117,0c-4.18872,4.19922 -4.18872,11.01245 0,15.20117c2.09961,2.09961 4.8501,3.14941 7.60059,3.14941c2.76099,0 5.51148,-1.0498 7.60059,-3.14941c1.86865,-1.85815 2.91846,-4.2832 3.08643,-6.88672l7.65308,-0.5459l4.2832,38.79028c0.18897,1.6167 -0.37793,3.2229 -1.54321,4.37768l-75.17651,75.17651c-2.08911,2.09961 -5.50098,2.09961 -7.60059,0l-57.00439,-57.00439c-2.09961,-2.09961 -2.08911,-5.51147 0,-7.60059l75.17651,-75.17651c1.01831,-1.01831 2.37256,-1.57471 3.78979,-1.57471zM131.86597,33.05835c1.49072,0 2.97095,0.5669 4.09424,1.70068c1.0918,1.0918 1.69018,2.54053 1.69018,4.08374c0,1.54321 -0.59839,3.00244 -1.69018,4.08374c-2.25708,2.25708 -5.9209,2.25708 -8.17798,0c-2.25708,-2.24658 -2.25708,-5.9209 0,-8.16748c1.12329,-1.13379 2.60352,-1.70068 4.08374,-1.70068zM114.76465,53.25659c-0.68237,0 -1.37524,0.26245 -1.90015,0.78735l-5.70044,5.71094l-1.90015,-1.90015c-5.23853,-5.23853 -13.76294,-5.23853 -19.00147,0l-3.80029,3.78979c-5.23853,5.23853 -5.23853,13.77344 0,19.01196l3.80029,3.78979v0.0105l3.80029,3.80029c3.13892,3.14941 3.13892,8.25146 0,11.40088l-3.81079,3.80029c-3.13892,3.14941 -8.25146,3.13892 -11.39038,0l-1.91065,-1.90015l11.41138,-11.40088c1.0498,-1.0498 1.0498,-2.75049 0,-3.80029c-1.0603,-1.0498 -2.75049,-1.0498 -3.81079,0l-11.39038,11.40088l-1.91064,-1.90015c-3.13892,-3.14941 -3.13892,-8.26196 0,-11.41138c1.0498,-1.0498 1.0498,-2.73999 0,-3.78979c-1.0498,-1.0603 -2.75049,-1.0603 -3.80029,0c-5.23853,5.22803 -5.23853,13.76294 0,18.99097l1.90015,1.91065l-5.70044,5.70044c-1.0498,1.0498 -1.0498,2.75049 0,3.80029c0.5249,0.5249 1.20727,0.78735 1.90015,0.78735c0.69287,0 1.37524,-0.26245 1.90015,-0.78735l5.71094,-5.70044l1.88965,1.90015c2.62451,2.62451 6.06787,3.92627 9.50073,3.92627c3.44336,0 6.88672,-1.31226 9.51123,-3.92627l3.80029,-3.80029c5.23853,-5.23853 5.23853,-13.76294 0,-19.00147l-1.90015,-1.90015l11.40088,-11.40088c1.0498,-1.0498 1.0498,-2.75049 0,-3.80029c-1.0498,-1.0498 -2.75049,-1.0498 -3.80029,0l-11.41138,11.40088l-1.90015,-1.90015c-3.13892,-3.14941 -3.13892,-8.25146 0,-11.40088l3.81079,-3.81079c3.13892,-3.13892 8.25146,-3.13892 11.40088,0l7.59009,7.61108c3.14941,3.14941 3.14941,8.25147 0,11.40088c-1.0498,1.0498 -1.0498,2.75049 0,3.80029c1.0603,1.0498 2.75049,1.0498 3.81079,0c5.23853,-5.23852 5.23853,-13.76294 0,-19.00146l-1.91065,-1.90015l5.71094,-5.70044c1.0498,-1.0603 1.0498,-2.75049 0,-3.81079c-0.5249,-0.5249 -1.21777,-0.78735 -1.90015,-0.78735zM22.75977,88.25708c-0.69287,0 -1.37524,0.26245 -1.90015,0.78735l-3.80029,3.80029c-1.0498,1.0498 -1.0498,2.75049 0,3.80029c0.5249,0.5249 1.20728,0.78735 1.90015,0.78735c0.69287,0 1.37524,-0.26245 1.90015,-0.78735l3.80029,-3.80029c1.0498,-1.0498 1.0498,-2.75049 0,-3.80029c-0.5249,-0.5249 -1.20727,-0.78735 -1.90015,-0.78735zM32.2605,97.75781c-0.69287,0 -1.37524,0.26245 -1.90015,0.78735l-3.80029,3.80029c-1.0498,1.0498 -1.0498,2.75049 0,3.80029c0.5249,0.5249 1.20727,0.78735 1.90015,0.78735c0.69287,0 1.37524,-0.26245 1.90015,-0.78735l3.80029,-3.81079c1.0498,-1.0498 1.0498,-2.73999 0,-3.78979c-0.5249,-0.5249 -1.20728,-0.78735 -1.90015,-0.78735zM41.76123,107.25854c-0.68238,0 -1.37524,0.26245 -1.90015,0.78735l-3.80029,3.80029c-1.0498,1.0498 -1.0498,2.75049 0,3.80029c0.5249,0.5249 1.20728,0.78735 1.90015,0.78735c0.69287,0 1.37524,-0.26245 1.90015,-0.78735l3.80029,-3.80029c1.0498,-1.0498 1.0498,-2.75049 0,-3.80029c-0.5249,-0.5249 -1.21777,-0.78735 -1.90015,-0.78735zM51.27246,116.75928c-0.69287,0 -1.38574,0.26245 -1.90015,0.78735l-3.81079,3.80029c-1.0498,1.0498 -1.0498,2.75049 0,3.80029c0.5249,0.5249 1.20728,0.78735 1.90015,0.78735c0.69287,0 1.37524,-0.26245 1.90015,-0.78735l3.80029,-3.80029c1.0603,-1.0498 1.0603,-2.75049 0,-3.80029c-0.5249,-0.5249 -1.20728,-0.78735 -1.88965,-0.78735zM60.7627,126.26001c-0.68237,0 -1.37524,0.26245 -1.88965,0.78735l-3.81079,3.80029c-1.0498,1.0498 -1.0498,2.75049 0,3.80029c0.5249,0.5249 1.21777,0.78735 1.91065,0.78735c0.68237,0 1.37524,-0.26245 1.90015,-0.78735l3.78979,-3.80029c1.0603,-1.0498 1.0603,-2.75049 0,-3.80029c-0.5249,-0.5249 -1.20727,-0.78735 -1.90015,-0.78735zM70.26343,135.76074c-0.68237,0 -1.37524,0.26245 -1.90015,0.78735l-3.78979,3.80029c-1.0603,1.0603 -1.0603,2.76099 0,3.81079c0.5144,0.5144 1.20728,0.78735 1.90015,0.78735c0.68237,0 1.37524,-0.27295 1.88965,-0.78735l3.81079,-3.81079c1.0498,-1.0498 1.0498,-2.75049 0,-3.80029c-0.5249,-0.5249 -1.21777,-0.78735 -1.91065,-0.78735zM79.77466,145.26147c-0.69287,0 -1.38574,0.26245 -1.91065,0.78735l-3.78979,3.81079c-1.0603,1.0498 -1.0603,2.75049 0,3.78979c0.5144,0.5249 1.20728,0.79785 1.88965,0.79785c0.69287,0 1.38574,-0.27295 1.90015,-0.79785l3.81079,-3.78979c1.0498,-1.0603 1.0498,-2.76099 0,-3.81079c-0.5249,-0.5249 -1.21777,-0.78735 -1.90015,-0.78735z"></path></g>
</g></svg>