<svg width="20" height="20" viewBox="0 0 9 9" fill="none" xmlns="http://www.w3.org/2000/svg">
<g clip-path="url(#clip0_942_2338)">
<path d="M2.55063 6.49841L1.93534 6.4973C1.77215 6.497 1.61577 6.43189 1.50059 6.31629C1.38541 6.20069 1.32087 6.04407 1.32116 5.88089L1.32396 4.34265C1.32425 4.17946 1.38936 4.02308 1.50496 3.9079C1.62056 3.79272 1.77718 3.72818 1.94037 3.72847L6.86272 3.73741C7.02591 3.73771 7.18229 3.80282 7.29747 3.91842C7.41265 4.03402 7.4772 4.19064 7.4769 4.35382L7.47411 5.89206C7.47381 6.05524 7.4087 6.21163 7.2931 6.32681C7.1775 6.44199 7.02088 6.50653 6.85769 6.50623L6.2424 6.50512" stroke="white" stroke-width="0.922943" stroke-linecap="round" stroke-linejoin="round"/>
<path d="M6.24462 5.27453L2.55286 5.26782L2.54839 7.729L6.24015 7.7357L6.24462 5.27453Z" stroke="white" stroke-width="0.922943" stroke-linecap="round" stroke-linejoin="round"/>
<path d="M2.55566 3.72961L2.55957 1.57608L6.25134 1.58278L6.24743 3.73631" stroke="white" stroke-width="0.922943" stroke-linecap="round" stroke-linejoin="round"/>
</g>
<defs>
<clipPath id="clip0_942_2338">
<rect width="7.38354" height="7.38354" fill="white" transform="translate(0.714844 0.957428) rotate(0.104027)"/>
</clipPath>
</defs>
</svg>
