<svg xmlns="http://www.w3.org/2000/svg" x="0px" y="0px"
width="20" height="20"
viewBox="0 0 172 172"
style=" fill:#000000;"><g fill="none" fill-rule="nonzero" stroke="none" stroke-width="1" stroke-linecap="butt" stroke-linejoin="miter" stroke-miterlimit="10" stroke-dasharray="" stroke-dashoffset="0" font-family="none" font-weight="none" font-size="none" text-anchor="none" style="mix-blend-mode: normal"><path d="M0,172v-172h172v172z" fill="none"></path><g fill="#00b74e"><path d="M86,17.2c-20.51564,0 -38.98161,9.01966 -51.6,23.31406v-12.99406c0.02542,-1.85848 -0.7021,-3.6482 -2.01701,-4.96184c-1.3149,-1.31364 -3.10532,-2.03944 -4.96378,-2.01223c-3.79707,0.05565 -6.83116,3.17694 -6.77922,6.97406v34.4h10.48125c0.7868,0.13806 1.59164,0.13806 2.37844,0h21.54031c2.48118,0.03509 4.78904,-1.2685 6.03987,-3.41161c1.25083,-2.1431 1.25083,-4.79369 0,-6.93679c-1.25083,-2.1431 -3.55869,-3.4467 -6.03987,-3.41161h-8.98297c10.01878,-10.58167 24.16927,-17.2 39.94297,-17.2c29.44303,0 53.27622,22.96072 54.87203,51.97625c0.1065,2.47514 1.5354,4.70194 3.74106,5.83009c2.20566,1.12815 4.84752,0.98346 6.91679,-0.37882c2.06927,-1.36228 3.24643,-3.7318 3.08199,-6.20377c-1.98867,-36.15871 -31.97938,-64.98375 -68.61187,-64.98375zM24.45625,82.46594c-1.94157,-0.0575 -3.81699,0.70832 -5.16334,2.10843c-1.34636,1.40011 -2.03821,3.30406 -1.90478,5.24189c1.98867,36.15871 31.97938,64.98375 68.61188,64.98375c20.51337,0 38.982,-9.01928 51.6,-23.31406v12.99406c-0.03509,2.48118 1.2685,4.78904 3.41161,6.03987c2.1431,1.25083 4.79369,1.25083 6.93679,0c2.1431,-1.25083 3.4467,-3.55869 3.41161,-6.03987v-34.4h-10.62235c-0.69905,-0.10845 -1.41064,-0.10845 -2.10969,0h-21.66797c-2.48118,-0.03509 -4.78904,1.2685 -6.03987,3.41161c-1.25083,2.1431 -1.25083,4.79369 0,6.93679c1.25083,2.1431 3.55869,3.4467 6.03987,3.41161h8.97625c-10.01773,10.58035 -24.1646,17.2 -39.93625,17.2c-29.44303,0 -53.27622,-22.96072 -54.87203,-51.97625c-0.14695,-3.60973 -3.06058,-6.49108 -6.67172,-6.59781z"></path></g></g></svg>