<svg xmlns="http://www.w3.org/2000/svg" x="0px" y="0px"
width="20" height="20"
viewBox="0 0 172 172"
style=" fill:#000000;"><g fill="none" fill-rule="nonzero" stroke="none" stroke-width="1" stroke-linecap="butt" stroke-linejoin="miter" stroke-miterlimit="10" stroke-dasharray="" stroke-dashoffset="0" font-family="none" font-weight="none" font-size="none" text-anchor="none" style="mix-blend-mode: normal">
<path d="M0,172v-172h172v172z" fill="none"></path><g fill="#ffffff"><path d="M52.28531,17.2c-1.20881,0.00075 -2.32854,0.63586 -2.94953,1.67297l-14.37813,23.96578c-0.01604,0.02666 -0.03172,0.05354 -0.04703,0.08062l-0.02016,0.0336c-0.4738,0.73607 -0.6492,1.62507 -0.49047,2.48594v102.4811c0.00019,1.89978 1.54022,3.43981 3.44,3.44h96.32c1.89978,-0.00019 3.43981,-1.54022 3.44,-3.44v-102.4811c0.15873,-0.86087 -0.01667,-1.74987 -0.49047,-2.48594l-14.44531,-24.08c-0.62099,-1.03711 -1.74072,-1.67222 -2.94953,-1.67297zM54.23375,24.08h28.32625v17.2h-38.64625zM89.44,24.08h28.32625l10.32,17.2h-38.64625zM41.28,48.16h89.44v96.32h-89.44zM154.8,51.6v10.32h-10.32v6.88h10.32v10.32l17.2,-13.76zM3.44,61.92c-1.24059,-0.01754 -2.39452,0.63425 -3.01993,1.7058c-0.62541,1.07155 -0.62541,2.39684 0,3.46839c0.62541,1.07155 1.77935,1.72335 3.01993,1.7058h10.32h3.44h10.32v-6.88h-10.32h-3.44zM68.8,61.92c-1.24059,-0.01754 -2.39452,0.63425 -3.01993,1.7058c-0.62541,1.07155 -0.62541,2.39684 0,3.46839c0.62541,1.07155 1.77935,1.72335 3.01993,1.7058h34.4c1.24059,0.01754 2.39452,-0.63425 3.01993,-1.7058c0.62541,-1.07155 0.62541,-2.39684 0,-3.46839c-0.62541,-1.07155 -1.77935,-1.72335 -3.01993,-1.7058zM17.2,113.52l-17.2,13.76l17.2,13.76v-10.32h10.32v-6.88h-10.32zM144.48,123.84v6.88h13.76h10.32c1.24059,0.01754 2.39452,-0.63425 3.01993,-1.7058c0.62541,-1.07155 0.62541,-2.39684 0,-3.46839c-0.62541,-1.07155 -1.77935,-1.72335 -3.01993,-1.7058h-10.32z"></path></g>
</g></svg>