<svg xmlns="http://www.w3.org/2000/svg" x="0px" y="0px"
width="20" height="20"
viewBox="0 0 172 172"
style=" fill:#000000;"><g fill="none" fill-rule="nonzero" stroke="none" stroke-width="1" stroke-linecap="butt" stroke-linejoin="miter" stroke-miterlimit="10" stroke-dasharray="" stroke-dashoffset="0" font-family="none" font-weight="none" font-size="none" text-anchor="none" style="mix-blend-mode: normal">
<path d="M0,172v-172h172v172z" fill="none"></path><g fill="#ffffff"><path d="M57.33333,86c0,-3.96317 -3.21067,-7.16667 -7.16667,-7.16667c-3.956,0 -7.16667,3.2035 -7.16667,7.16667c0,3.96317 3.21067,7.16667 7.16667,7.16667c3.956,0 7.16667,-3.2035 7.16667,-7.16667zM129,86c0,-3.96317 -3.21067,-7.16667 -7.16667,-7.16667c-3.956,0 -7.16667,3.2035 -7.16667,7.16667c0,3.96317 3.21067,7.16667 7.16667,7.16667c3.956,0 7.16667,-3.2035 7.16667,-7.16667z"></path><path d="M157.66667,93.16667v-43c0,-3.96317 -3.2035,-7.16667 -7.16667,-7.16667h-129c-3.96317,0 -7.16667,3.2035 -7.16667,7.16667v71.66667c0,3.96317 3.2035,7.16667 7.16667,7.16667h122.69333v-14.33333h-115.52667v-57.33333h114.66667v35.83333z"></path><path d="M25.08333,107.5c-5.93706,0 -10.75,4.81294 -10.75,10.75c0,5.93706 4.81294,10.75 10.75,10.75c5.93706,0 10.75,-4.81294 10.75,-10.75c0,-5.93706 -4.81294,-10.75 -10.75,-10.75zM25.08333,43c-5.93706,0 -10.75,4.81294 -10.75,10.75c0,5.93706 4.81294,10.75 10.75,10.75c5.93706,0 10.75,-4.81294 10.75,-10.75c0,-5.93706 -4.81294,-10.75 -10.75,-10.75zM146.91667,43c-5.93706,0 -10.75,4.81294 -10.75,10.75c0,5.93706 4.81294,10.75 10.75,10.75c5.93706,0 10.75,-4.81294 10.75,-10.75c0,-5.93706 -4.81294,-10.75 -10.75,-10.75zM86,68.08333c-9.8951,0 -17.91667,8.02156 -17.91667,17.91667c0,9.8951 8.02156,17.91667 17.91667,17.91667c9.8951,0 17.91667,-8.02156 17.91667,-17.91667c0,-9.8951 -8.02156,-17.91667 -17.91667,-17.91667z"></path><path d="M165.378,110.25917c-2.78067,-3.15333 -6.7295,-4.859 -10.76433,-4.859c-1.81317,0 -3.64067,0.344 -5.38933,1.0535l-20.22433,8.213h-93.16667v21.5c0,11.87517 9.62483,21.5 21.5,21.5h64.70067c3.64067,0 7.14517,-1.38317 9.804,-3.87717l39.37367,-36.90117zM122.034,143.33333h-64.70067c-3.94883,0 -7.16667,-3.21783 -7.16667,-7.16667v-7.16667h78.83333h2.80217l2.59433,-1.0535l7.1595,-2.90967zM129,21.5c0,-7.91917 -6.41417,-14.33333 -14.33333,-14.33333h-28.66667l-39.76783,11.36633c-6.15617,1.75583 -10.39883,7.38167 -10.39883,13.7815v25.01883h93.16667zM114.66667,43h-64.5v-10.6855l37.84,-10.8145h26.66z"></path><path d="M121.83333,14.33333h-38.52083l-40.3125,14.33333v21.5h78.83333z" opacity="0.3"></path><g opacity="0.3"><path d="M150.5,121.83333h-107.5v15.3295c0,7.36733 5.96983,13.33717 13.33717,13.33717h65.49617z"></path></g></g>
</g></svg>