<svg xmlns="http://www.w3.org/2000/svg" x="0px" y="0px"
width="20" height="20"
viewBox="0 0 172 172"
style=" fill:#000000;"><g fill="none" fill-rule="nonzero" stroke="none" stroke-width="1" stroke-linecap="butt" stroke-linejoin="miter" stroke-miterlimit="10" stroke-dasharray="" stroke-dashoffset="0" font-family="none" font-weight="none" font-size="none" text-anchor="none" style="mix-blend-mode: normal">
<path d="M0,172v-172h172v172z" fill="none"></path><g fill="#ffffff"><path d="M75.25,0.67188c-7.39062,0 -13.4375,6.04688 -13.4375,13.4375c0,7.39063 6.04688,13.4375 13.4375,13.4375h21.5c5.77813,0 10.61615,-3.62813 12.63178,-8.73437h26.33697c5.24062,0 9.40625,4.16563 9.40625,9.40625v53.75c0,2.28437 1.74687,4.03125 4.03125,4.03125c2.28438,0 4.03125,-1.74688 4.03125,-4.03125v-53.75c0,-9.675 -7.79375,-17.46875 -17.46875,-17.46875h-25.93542c-1.47812,-5.77812 -6.7177,-10.07812 -13.03333,-10.07812zM75.25,8.73438h21.5c2.95625,0 5.375,2.41875 5.375,5.375c0,2.95625 -2.41875,5.375 -5.375,5.375h-21.5c-2.95625,0 -5.375,-2.41875 -5.375,-5.375c0,-2.95625 2.41875,-5.375 5.375,-5.375zM36.28125,10.75c-9.675,0 -17.46875,7.79375 -17.46875,17.46875v124.96875c0,9.675 7.79375,17.46875 17.46875,17.46875h76.59375c2.28437,0 4.03125,-1.74687 4.03125,-4.03125c0,-2.28438 -1.74688,-4.03125 -4.03125,-4.03125h-76.59375c-5.24062,0 -9.40625,-4.16563 -9.40625,-9.40625v-124.96875c0,-5.24062 4.16563,-9.40625 9.40625,-9.40625h13.4375c2.28438,0 4.03125,-1.74687 4.03125,-4.03125c0,-2.28437 -1.74687,-4.03125 -4.03125,-4.03125zM53.75,68.53125c-2.2264,0 -4.03125,1.80485 -4.03125,4.03125c0,2.2264 1.80485,4.03125 4.03125,4.03125c2.2264,0 4.03125,-1.80485 4.03125,-4.03125c0,-2.2264 -1.80485,-4.03125 -4.03125,-4.03125zM73.90625,68.53125c-2.28437,0 -4.03125,1.74688 -4.03125,4.03125c0,2.28437 1.74688,4.03125 4.03125,4.03125h45.6875c2.28437,0 4.03125,-1.74688 4.03125,-4.03125c0,-2.28437 -1.74688,-4.03125 -4.03125,-4.03125zM53.75,88.6875c-2.2264,0 -4.03125,1.80485 -4.03125,4.03125c0,2.2264 1.80485,4.03125 4.03125,4.03125c2.2264,0 4.03125,-1.80485 4.03125,-4.03125c0,-2.2264 -1.80485,-4.03125 -4.03125,-4.03125zM73.90625,88.6875c-2.28437,0 -4.03125,1.74688 -4.03125,4.03125c0,2.28437 1.74688,4.03125 4.03125,4.03125h45.6875c2.28437,0 4.03125,-1.74688 4.03125,-4.03125c0,-2.28437 -1.74688,-4.03125 -4.03125,-4.03125zM149.15625,106.15625c-2.28438,0 -4.03125,1.74688 -4.03125,4.03125v0.53803c-6.31563,1.74687 -10.88385,7.52395 -10.88385,14.37707c0,4.8375 2.28333,9.27188 6.31458,12.09375l12.49792,8.73438c1.88125,1.34375 3.08905,3.36095 3.08905,5.64532c0,3.7625 -3.0901,6.8526 -6.8526,6.8526c-2.6875,0 -5.23958,-1.61198 -6.31458,-4.1651c-0.94063,-2.01562 -3.22552,-2.95835 -5.24115,-2.1521c-2.01562,0.94063 -2.95573,3.22552 -2.14948,5.24115c1.88125,4.16563 5.37395,7.2573 9.67395,8.46667v0.53802c0,2.28438 1.74687,4.03125 4.03125,4.03125c2.28438,0 4.03125,-1.74687 4.03125,-4.03125v-0.53802c6.31563,-1.74687 10.88385,-7.52657 10.88385,-14.3797c0,-4.97188 -2.41718,-9.53958 -6.44843,-12.36145l-12.36407,-8.73437c-1.74687,-1.34375 -2.82135,-3.35833 -2.82135,-5.6427c0,-3.7625 3.0901,-6.85522 6.8526,-6.85522c2.82188,0 5.2422,1.6146 6.3172,4.16772c0.80625,2.01563 3.22552,2.95573 5.24115,2.14948c2.01563,-0.80625 2.95573,-3.22553 2.14948,-5.24115c-1.74687,-4.3 -5.37657,-7.39115 -9.67657,-8.60053v-0.13385h-0.2677c0,-2.28437 -1.74687,-4.03125 -4.03125,-4.03125zM53.75,108.84375c-2.2264,0 -4.03125,1.80485 -4.03125,4.03125c0,2.2264 1.80485,4.03125 4.03125,4.03125c2.2264,0 4.03125,-1.80485 4.03125,-4.03125c0,-2.2264 -1.80485,-4.03125 -4.03125,-4.03125zM73.90625,108.84375c-2.28437,0 -4.03125,1.74688 -4.03125,4.03125c0,2.28437 1.74688,4.03125 4.03125,4.03125h45.6875c2.28437,0 4.03125,-1.74688 4.03125,-4.03125c0,-2.28437 -1.74688,-4.03125 -4.03125,-4.03125z"></path></g>
</g></svg>