<svg xmlns="http://www.w3.org/2000/svg" x="0px" y="0px"
width="20" height="20"
viewBox="0 0 172 172"
style=" fill:#000000;"><g fill="none" fill-rule="nonzero" stroke="none" stroke-width="1" stroke-linecap="butt" stroke-linejoin="miter" stroke-miterlimit="10" stroke-dasharray="" stroke-dashoffset="0" font-family="none" font-weight="none" font-size="none" text-anchor="none" style="mix-blend-mode: normal">
<path d="M0,172v-172h172v172z" fill="none"></path><g fill="#ffffff"><path d="M117.7125,7.31l-1.935,2.795l-30.6375,44.3975l-26.5525,7.8475c-3.52062,1.06156 -6.50375,3.35938 -8.4925,6.45l-22.0375,34.0775l13.975,47.4075l25.4775,-5.59c0.645,-0.13437 1.29,-0.36281 1.935,-0.5375c6.235,-2.09625 11.69063,-5.87219 15.8025,-11.0725l3.225,-4.6225l14.62,10.2125l2.795,1.935l2.0425,-2.9025l62.135,-90.085l2.0425,-2.795l-2.9025,-1.935l-48.59,-33.6475zM119.54,16.8775l43,29.7775l-24.1875,35.045c2.94281,-9.95719 -1.76031,-21.99719 -12.1475,-29.1325c-5.95281,-4.085 -12.87312,-5.99312 -19.565,-5.375c-3.95062,0.36281 -7.51156,1.58563 -10.535,3.5475zM133.8375,37.41c-1.84094,-0.01344 -3.61469,0.83313 -4.73,2.4725c-1.78719,2.60688 -1.11531,6.26188 1.505,8.0625c2.62031,1.80063 6.16781,1.10188 7.955,-1.505c1.78719,-2.60687 1.11531,-6.15437 -1.505,-7.955c-0.98094,-0.67187 -2.12312,-1.06156 -3.225,-1.075zM87.29,63.5325c-1.00781,4.78375 -0.36281,10.03781 1.8275,14.9425l2.6875,-2.365c3.13094,-2.55312 7.13531,-3.87 11.18,-3.87c4.55531,0 8.85531,1.67969 12.1475,4.8375c5.375,5.14656 6.81281,12.9 4.085,19.4575c4.52844,-0.38969 8.6,-1.97531 11.9325,-4.515l-26.9825,39.0225l-11.7175,-8.0625l18.92,-26.5525c3.41313,-4.34031 3.01,-10.58875 -0.9675,-14.405c-3.91031,-3.74906 -9.9975,-3.96406 -14.19,-0.5375l-19.4575,16.2325l-8.0625,-4.8375zM20.9625,103.3075l-20.9625,6.45l17.3075,58.5875l21.07,-6.45z"></path></g>
</g></svg>