<svg xmlns="http://www.w3.org/2000/svg" x="0px" y="0px"
width="20" height="20"
viewBox="0 0 172 172"
style=" fill:#000000;"><g fill="none" fill-rule="nonzero" stroke="none" stroke-width="1" stroke-linecap="butt" stroke-linejoin="miter" stroke-miterlimit="10" stroke-dasharray="" stroke-dashoffset="0" font-family="none" font-weight="none" font-size="none" text-anchor="none" style="mix-blend-mode: normal">
<path d="M0,172v-172h172v172z" fill="none"></path><g fill="#ffffff"><path d="M86,0.31494c-5.53247,0 -11.07544,1.72168 -15.79956,5.16504l-7.25415,5.27002h-38.75879c-4.43017,0 -8.0625,3.63233 -8.0625,8.0625v139.75c0,4.43018 3.63233,8.0625 8.0625,8.0625h123.625c4.43018,0 8.0625,-3.63232 8.0625,-8.0625v-139.75c0,-4.43017 -3.63232,-8.0625 -8.0625,-8.0625h-38.75879l-7.25415,-5.27002c-4.72412,-3.44336 -10.26709,-5.15454 -15.79956,-5.16504zM86,5.71094c4.43018,0 8.87085,1.37524 12.66065,4.12573l1.25977,0.91333l7.36963,5.375l2.25708,1.6377c2.08911,1.50122 3.32788,3.94727 3.32788,6.52979v5.27002c0,1.48022 -1.20728,2.6875 -2.6875,2.6875h-48.375c-1.48022,0 -2.6875,-1.20728 -2.6875,-2.6875v-5.27002c0,-2.58252 1.23877,-5.02857 3.32788,-6.52979l2.25708,-1.6377l7.36963,-5.375l1.25977,-0.91333c3.78979,-2.75049 8.23047,-4.12573 12.66064,-4.12573zM86,10.58203c-2.96045,0 -5.375,2.41455 -5.375,5.375c0,0.03149 0.0105,0.05249 0.0105,0.08398c0,0.03149 -0.0105,0.05249 -0.0105,0.08398c0,2.96045 2.41455,5.375 5.375,5.375c2.96045,0 5.375,-2.41455 5.375,-5.375c0,-0.03149 -0.0105,-0.05249 -0.0105,-0.08398c0,-0.03149 0.0105,-0.05249 0.0105,-0.08398c0,-2.96045 -2.41455,-5.375 -5.375,-5.375zM24.1875,16.125h32.33398c-1.77417,2.30957 -2.77148,5.18604 -2.77148,8.16748v2.58252h-16.125c-2.96045,0 -5.375,2.41455 -5.375,5.375v112.875c0,2.96045 2.41455,5.375 5.375,5.375h75.71191c2.1416,0 4.18872,-0.83984 5.68994,-2.36206l18.36108,-18.36108c1.52222,-1.50122 2.36206,-3.54834 2.36206,-5.68994v-91.83691c0,-2.96045 -2.41455,-5.375 -5.375,-5.375h-16.125v-2.58252c0,-2.98145 -0.99732,-5.85791 -2.77148,-8.16748h32.33398c1.48022,0 2.6875,1.20728 2.6875,2.6875v139.75c0,1.48022 -1.20728,2.6875 -2.6875,2.6875h-123.625c-1.48022,0 -2.6875,-1.20728 -2.6875,-2.6875v-139.75c0,-1.48022 1.20728,-2.6875 2.6875,-2.6875zM37.625,32.25h16.60791c1.10229,3.11792 4.08374,5.375 7.57959,5.375h48.375c3.49585,0 6.47729,-2.25708 7.57959,-5.375h16.60791v91.375h-16.125c-2.96045,0 -5.375,2.41455 -5.375,5.375v16.125h-75.25zM45.6875,43c-1.49072,0 -2.6875,1.20728 -2.6875,2.6875v5.375c0,1.48022 1.19678,2.6875 2.6875,2.6875c1.49072,0 2.6875,-1.20728 2.6875,-2.6875v-5.375c0,-1.48022 -1.19678,-2.6875 -2.6875,-2.6875zM59.125,43c-1.49072,0 -2.6875,1.20728 -2.6875,2.6875v5.375c0,1.48022 1.19678,2.6875 2.6875,2.6875c1.49072,0 2.6875,-1.20728 2.6875,-2.6875v-5.375c0,-1.48022 -1.19678,-2.6875 -2.6875,-2.6875zM72.5625,43c-1.49072,0 -2.6875,1.20728 -2.6875,2.6875v5.375c0,1.48022 1.19678,2.6875 2.6875,2.6875c1.49072,0 2.6875,-1.20728 2.6875,-2.6875v-5.375c0,-1.48022 -1.19678,-2.6875 -2.6875,-2.6875zM86,43c-1.49072,0 -2.6875,1.20728 -2.6875,2.6875v5.375c0,1.48022 1.19678,2.6875 2.6875,2.6875c1.49072,0 2.6875,-1.20728 2.6875,-2.6875v-5.375c0,-1.48022 -1.19678,-2.6875 -2.6875,-2.6875zM99.4375,43c-1.49072,0 -2.6875,1.20728 -2.6875,2.6875v5.375c0,1.48022 1.19678,2.6875 2.6875,2.6875c1.49072,0 2.6875,-1.20728 2.6875,-2.6875v-5.375c0,-1.48022 -1.19678,-2.6875 -2.6875,-2.6875zM112.875,43c-1.49072,0 -2.6875,1.20728 -2.6875,2.6875v5.375c0,1.48022 1.19678,2.6875 2.6875,2.6875c1.49072,0 2.6875,-1.20728 2.6875,-2.6875v-5.375c0,-1.48022 -1.19678,-2.6875 -2.6875,-2.6875zM126.3125,43c-1.49072,0 -2.6875,1.20728 -2.6875,2.6875v5.375c0,1.48022 1.19678,2.6875 2.6875,2.6875c1.49072,0 2.6875,-1.20728 2.6875,-2.6875v-5.375c0,-1.48022 -1.19678,-2.6875 -2.6875,-2.6875zM118.25,69.875c-0.68237,0 -1.37524,0.26245 -1.90015,0.78735l-38.41235,38.41235l-19.59985,-19.59985c-1.0498,-1.0498 -2.75049,-1.0498 -3.80029,0c-1.0498,1.0498 -1.0498,2.75049 0,3.80029l21.5,21.5c0.5249,0.5249 1.20728,0.78735 1.90015,0.78735c0.69287,0 1.37524,-0.26245 1.90015,-0.78735l40.3125,-40.3125c1.0498,-1.0498 1.0498,-2.75049 0,-3.80029c-0.5249,-0.5249 -1.21777,-0.78735 -1.90015,-0.78735zM118.25,129h12.33521l-12.33521,12.33521z"></path></g>
</g></svg>