<svg xmlns="http://www.w3.org/2000/svg" x="0px" y="0px"
width="20" height="20"
viewBox="0 0 172 172"
style=" fill:#000000;"><g fill="none" fill-rule="nonzero" stroke="none" stroke-width="1" stroke-linecap="butt" stroke-linejoin="miter" stroke-miterlimit="10" stroke-dasharray="" stroke-dashoffset="0" font-family="none" font-weight="none" font-size="none" text-anchor="none" style="mix-blend-mode: normal"><path d="M0,172v-172h172v172z" fill="none"></path><g fill="#000000"><path d="M9.675,0c-5.28094,0 -9.675,4.39406 -9.675,9.675v17.2c-0.02687,0.215 -0.02687,0.43 0,0.645v110.08c0,1.89469 1.54531,3.44 3.44,3.44h79.12c1.23625,0.01344 2.39188,-0.63156 3.02344,-1.70656c0.61813,-1.075 0.61813,-2.39187 0,-3.46687c-0.63156,-1.075 -1.78719,-1.72 -3.02344,-1.70656h-75.68v-103.2h137.6v44.72c-0.01344,1.23625 0.63156,2.39188 1.70656,3.02344c1.075,0.61813 2.39187,0.61813 3.46687,0c1.075,-0.63156 1.72,-1.78719 1.70656,-3.02344v-48.16c0.02688,-0.215 0.02688,-0.43 0,-0.645v-17.2c0,-5.28094 -4.39406,-9.675 -9.675,-9.675zM9.675,6.88h132.01c1.59906,0 2.795,1.19594 2.795,2.795v14.405h-137.6v-14.405c0,-1.59906 1.19594,-2.795 2.795,-2.795zM24.08,51.6v6.88h13.76v-6.88zM48.16,51.6v6.88h79.12v-6.88zM24.08,68.8v6.88h13.76v-6.88zM48.16,68.8v6.88h79.12v-6.88zM157.9175,85.6775c-3.61469,0 -7.24281,1.33031 -9.9975,4.085l-2.365,2.4725l0.1075,0.1075l-53.105,53.105c-0.44344,0.40313 -0.77937,0.92719 -0.9675,1.505l-5.805,20.64c-0.34937,1.19594 -0.04031,2.48594 0.83313,3.38625c0.87344,0.88688 2.15,1.23625 3.35937,0.91375l20.64,-5.4825c0.57781,-0.18812 1.10188,-0.52406 1.505,-0.9675l54.395,-53.965c0.41656,-0.34937 0.7525,-0.79281 0.9675,-1.29c0,-0.04031 0,-0.06719 0,-0.1075l0.43,-0.3225c5.50938,-5.50937 5.50938,-14.48562 0,-19.995c-2.75469,-2.75469 -6.38281,-4.085 -9.9975,-4.085zM24.08,86v6.88h13.76v-6.88zM48.16,86v6.88h79.12v-6.88zM150.5,97.18l10.32,10.32l-52.7825,52.46l-10.105,-9.7825l0.1075,-0.43zM24.08,103.2v6.88h13.76v-6.88zM48.16,103.2v6.88h65.36v-6.88z"></path></g></g></svg>