<svg xmlns="http://www.w3.org/2000/svg" x="0px" y="0px"
width="20" height="20"
viewBox="0 0 172 172"
style=" fill:#000000;"><g fill="none" fill-rule="nonzero" stroke="none" stroke-width="1" stroke-linecap="butt" stroke-linejoin="miter" stroke-miterlimit="10" stroke-dasharray="" stroke-dashoffset="0" font-family="none" font-weight="none" font-size="none" text-anchor="none" style="mix-blend-mode: normal"><path d="M0,172v-172h172v172z" fill="none"></path><g fill="#ffffff"><path d="M17.2,13.76c-5.6587,0 -10.32,4.6613 -10.32,10.32v30.96v34.4v58.48c0,5.6587 4.6613,10.32 10.32,10.32h137.6c5.6587,0 10.32,-4.6613 10.32,-10.32v-110.08c0,-5.6587 -4.6613,-10.32 -10.32,-10.32h-92.88c0.2978,0 -0.10667,0.00125 -0.94735,-0.9675c-0.84067,-0.96875 -1.87545,-2.5759 -2.95625,-4.3c-1.08079,-1.7241 -2.21349,-3.5637 -3.64156,-5.18016c-1.42807,-1.61645 -3.39833,-3.31234 -6.21485,-3.31234zM17.2,20.64h30.96c-0.20898,0 0.21032,0.02411 1.06156,0.98766c0.85125,0.96355 1.88731,2.56394 2.96297,4.27984c1.07566,1.7159 2.18958,3.54875 3.58781,5.16c1.39823,1.61125 3.32316,3.3325 6.14765,3.3325h92.88c1.9437,0 3.44,1.4963 3.44,3.44v7.525c-1.08323,-0.39065 -2.22966,-0.645 -3.44,-0.645h-137.6c-1.21034,0 -2.35677,0.25435 -3.44,0.645v-21.285c0,-1.9437 1.4963,-3.44 3.44,-3.44zM17.2,51.6h137.6c1.9437,0 3.44,1.4963 3.44,3.44v92.88c0,1.9437 -1.4963,3.44 -3.44,3.44h-137.6c-1.9437,0 -3.44,-1.4963 -3.44,-3.44v-92.88c0,-1.9437 1.4963,-3.44 3.44,-3.44zM89.28547,58.48c-9.92455,-0.04561 -16.86234,2.42569 -21.29172,6.4836c-4.42938,4.0579 -6.03014,9.48463 -5.97297,14.27062c0.04345,3.56993 0.90575,6.04972 1.73344,8.68063c-0.1764,0.17468 -0.15965,0.03813 -0.3225,0.24859c-1.14208,1.47582 -1.53423,3.3773 -1.51172,5.89235c0.00231,0.12357 0.01128,0.24693 0.02687,0.36953c0.36711,3.11343 1.90411,5.51079 3.62813,6.86656c0.82696,0.65033 1.47867,0.61466 2.23735,0.90703c0.49647,1.96631 1.01396,3.97197 1.9014,5.54297c0.6104,1.08056 1.25686,2.04038 1.92828,2.86219c0.16588,0.20303 0.43539,0.34297 0.59797,0.53078v6.3425c-0.49014,1.13011 -1.39434,1.95706 -3.52735,2.83531c-2.25911,0.93018 -5.44122,1.67594 -8.7814,2.76141c-3.34018,1.08547 -6.92692,2.53904 -9.87656,5.3414c-2.94964,2.80236 -5.00722,6.99201 -5.32797,12.42297c-0.0554,0.94555 0.28148,1.8721 0.93123,2.56127c0.64975,0.68917 1.55488,1.07997 2.50205,1.08029h34.15813c0.08052,0.00507 0.1612,0.00732 0.24187,0.00672h37.84c0.94841,-0.00021 1.85466,-0.39193 2.50462,-1.0826c0.64996,-0.69067 0.98598,-1.61901 0.92866,-2.56568c-0.32076,-5.43096 -2.37833,-9.61389 -5.32797,-12.41625c-2.94964,-2.80236 -6.53638,-4.25594 -9.87656,-5.3414c-3.34018,-1.08547 -6.52229,-1.83795 -8.7814,-2.76813c-2.133,-0.87825 -3.0372,-1.7052 -3.52735,-2.83531v-6.3425c0.16257,-0.18782 0.43208,-0.32773 0.59797,-0.53078c0.67142,-0.82181 1.31788,-1.78163 1.92828,-2.86219c0.88719,-1.57053 1.40489,-3.57062 1.9014,-5.53625c0.75904,-0.29237 1.40993,-0.26305 2.23735,-0.91375c1.72402,-1.35576 3.26102,-3.74641 3.62813,-6.85984c0.01559,-0.12261 0.02456,-0.24596 0.02687,-0.36953c0.0241,-2.45843 -0.37889,-4.3504 -1.51172,-5.805c0.8039,-2.3679 1.40629,-4.96276 1.45797,-8.14985c0.06605,-4.00321 -0.96687,-8.29235 -3.4736,-11.85859c-2.07595,-2.95339 -5.57207,-4.936 -9.66828,-5.66391l-1.09515,-2.19703c-0.57883,-1.1637 -1.76406,-1.90187 -3.06375,-1.90813zM87.26313,65.61531l0.65172,1.31687c0.58019,1.1728 1.77544,1.91495 3.0839,1.91485c3.17399,0 5.02126,1.2694 6.49031,3.35937c1.46905,2.08998 2.2612,5.12009 2.21719,7.78703c-0.05077,3.13086 -0.70381,5.13483 -1.73344,7.73328c-0.41692,0.74571 -0.54145,1.61987 -0.34938,2.45235c0.01378,0.06539 0.02947,0.13036 0.04703,0.19484c0.2683,1.02241 0.99171,1.86474 1.96188,2.28438c0.02656,0.22179 0.08793,0.58898 0.12094,1.0414c-0.18762,1.38106 -0.60915,1.85952 -1.02125,2.1836c-0.42598,0.33499 -1.10672,0.461 -0.97422,0.45015c-1.64785,0.13649 -2.96553,1.42596 -3.13766,3.07047c-0.15098,1.43951 -0.88873,3.41553 -1.76031,4.95844c-0.43579,0.77145 -0.90357,1.44638 -1.26985,1.89469c-0.36627,0.44831 -0.78347,0.66499 -0.32922,0.42328c-1.12126,0.59828 -1.82137,1.76598 -1.82078,3.03687v8.77469c-0.00042,0.40333 0.07008,0.80359 0.20828,1.1825c1.34044,3.66791 4.51618,5.73995 7.57875,7.00094c3.06257,1.26099 6.32701,1.99035 9.2786,2.94953c2.95158,0.95918 5.50169,2.1157 7.25625,3.78265c1.09037,1.03592 1.85162,2.45766 2.41875,4.19922h-29.93875c-0.08052,-0.00507 -0.1612,-0.00732 -0.24187,-0.00672h-33.62063c0.56718,-1.73929 1.32927,-3.15742 2.41875,-4.1925c1.75455,-1.66695 4.30467,-2.83019 7.25625,-3.78937c2.95159,-0.95919 6.21603,-1.68854 9.2786,-2.94953c3.06257,-1.261 6.23831,-3.33303 7.57875,-7.00094c0.13821,-0.37891 0.20871,-0.77917 0.20828,-1.1825v-8.76797c0.00058,-1.27089 -0.69952,-2.43859 -1.82078,-3.03687c0.45425,0.24169 0.03704,0.01823 -0.32922,-0.43c-0.36627,-0.44831 -0.83406,-1.12324 -1.26985,-1.89469c-0.87158,-1.54291 -1.60933,-3.51221 -1.76031,-4.95172c-0.17213,-1.64451 -1.48981,-2.93398 -3.13766,-3.07047c0.13251,0.01101 -0.54824,-0.11517 -0.97422,-0.45015c-0.40954,-0.32205 -0.82502,-0.80969 -1.01453,-2.17015c0.03667,-0.58933 0.11214,-1.00454 0.13438,-1.22281c0.12073,-0.07077 0.07083,-0.02996 0.36953,-0.215c1.38501,-0.8568 1.9795,-2.56736 1.42437,-4.09844c-1.1826,-3.26304 -1.79425,-5.18887 -1.84094,-9.02328c-0.03915,-3.27737 0.91521,-6.53347 3.73562,-9.11735c2.55439,-2.34016 7.30443,-4.10004 14.62672,-4.42094z"></path></g></g></svg>