<svg xmlns="http://www.w3.org/2000/svg" x="0px" y="0px"
width="20" height="20"
viewBox="0 0 172 172"
style=" fill:#000000;"><g fill="none" fill-rule="nonzero" stroke="none" stroke-width="1" stroke-linecap="butt" stroke-linejoin="miter" stroke-miterlimit="10" stroke-dasharray="" stroke-dashoffset="0" font-family="none" font-weight="none" font-size="none" text-anchor="none" style="mix-blend-mode: normal"><path d="M0,172v-172h172v172z" fill="none"></path><g id="original-icon" fill="#ffffff" opacity="0" visibility="hidden"><path d="M17.2,21.5v25.8h4.3v103.2h129v-103.2h4.3v-25.8zM21.5,25.8h129v17.2h-129zM25.8,47.3h120.4v98.9h-120.4zM68.8,55.9c-3.53574,0 -6.45,2.91426 -6.45,6.45v2.15h0.89863c0.94902,2.37676 2.84707,4.3 5.55137,4.3h34.4c2.7043,0 4.60234,-1.92324 5.55137,-4.3h0.89863v-2.15c0,-3.53574 -2.91426,-6.45 -6.45,-6.45zM68.8,60.2h34.4c1.21777,0 2.15,0.93223 2.15,2.15c0,1.21777 -0.93223,2.15 -2.15,2.15h-34.4c-1.21777,0 -2.15,-0.93223 -2.15,-2.15c0,-1.21777 0.93223,-2.15 2.15,-2.15zM38.7,135.45c-1.18418,0 -2.15,0.96582 -2.15,2.15c0,1.18418 0.96582,2.15 2.15,2.15c1.18418,0 2.15,-0.96582 2.15,-2.15c0,-1.18418 -0.96582,-2.15 -2.15,-2.15zM47.3,135.45c-1.18418,0 -2.15,0.96582 -2.15,2.15c0,1.18418 0.96582,2.15 2.15,2.15c1.18418,0 2.15,-0.96582 2.15,-2.15c0,-1.18418 -0.96582,-2.15 -2.15,-2.15zM55.9,135.45c-1.18418,0 -2.15,0.96582 -2.15,2.15c0,1.18418 0.96582,2.15 2.15,2.15c1.18418,0 2.15,-0.96582 2.15,-2.15c0,-1.18418 -0.96582,-2.15 -2.15,-2.15zM64.5,135.45c-1.18418,0 -2.15,0.96582 -2.15,2.15c0,1.18418 0.96582,2.15 2.15,2.15c1.18418,0 2.15,-0.96582 2.15,-2.15c0,-1.18418 -0.96582,-2.15 -2.15,-2.15zM73.1,135.45c-1.18418,0 -2.15,0.96582 -2.15,2.15c0,1.18418 0.96582,2.15 2.15,2.15c1.18418,0 2.15,-0.96582 2.15,-2.15c0,-1.18418 -0.96582,-2.15 -2.15,-2.15zM81.7,135.45c-1.18418,0 -2.15,0.96582 -2.15,2.15c0,1.18418 0.96582,2.15 2.15,2.15c1.18418,0 2.15,-0.96582 2.15,-2.15c0,-1.18418 -0.96582,-2.15 -2.15,-2.15zM90.3,135.45c-1.18418,0 -2.15,0.96582 -2.15,2.15c0,1.18418 0.96582,2.15 2.15,2.15c1.18418,0 2.15,-0.96582 2.15,-2.15c0,-1.18418 -0.96582,-2.15 -2.15,-2.15zM98.9,135.45c-1.18418,0 -2.15,0.96582 -2.15,2.15c0,1.18418 0.96582,2.15 2.15,2.15c1.18418,0 2.15,-0.96582 2.15,-2.15c0,-1.18418 -0.96582,-2.15 -2.15,-2.15zM107.5,135.45c-1.18418,0 -2.15,0.96582 -2.15,2.15c0,1.18418 0.96582,2.15 2.15,2.15c1.18418,0 2.15,-0.96582 2.15,-2.15c0,-1.18418 -0.96582,-2.15 -2.15,-2.15zM116.1,135.45c-1.18418,0 -2.15,0.96582 -2.15,2.15c0,1.18418 0.96582,2.15 2.15,2.15c1.18418,0 2.15,-0.96582 2.15,-2.15c0,-1.18418 -0.96582,-2.15 -2.15,-2.15zM124.7,135.45c-1.18418,0 -2.15,0.96582 -2.15,2.15c0,1.18418 0.96582,2.15 2.15,2.15c1.18418,0 2.15,-0.96582 2.15,-2.15c0,-1.18418 -0.96582,-2.15 -2.15,-2.15zM133.3,135.45c-1.18418,0 -2.15,0.96582 -2.15,2.15c0,1.18418 0.96582,2.15 2.15,2.15c1.18418,0 2.15,-0.96582 2.15,-2.15c0,-1.18418 -0.96582,-2.15 -2.15,-2.15z"></path></g><g id="subtracted-icon" fill="#ffffff"><path d="M154.8,21.5v25.8h-4.3v53.21845c-1.3757,-0.53893 -2.81374,-0.95253 -4.3,-1.22669v-51.99176h-120.4v98.9h81.7v4.3h-86v-103.2h-4.3v-25.8zM21.5,43h129v-17.2h-129zM103.2,55.9c3.53574,0 6.45,2.91426 6.45,6.45v2.15h-0.89863c-0.94902,2.37676 -2.84707,4.3 -5.55137,4.3h-34.4c-2.7043,0 -4.60234,-1.92324 -5.55137,-4.3h-0.89863v-2.15c0,-3.53574 2.91426,-6.45 6.45,-6.45zM66.65,62.35c0,1.21777 0.93223,2.15 2.15,2.15h34.4c1.21777,0 2.15,-0.93223 2.15,-2.15c0,-1.21777 -0.93223,-2.15 -2.15,-2.15h-34.4c-1.21777,0 -2.15,0.93223 -2.15,2.15zM40.85,137.6c0,1.18418 -0.96582,2.15 -2.15,2.15c-1.18418,0 -2.15,-0.96582 -2.15,-2.15c0,-1.18418 0.96582,-2.15 2.15,-2.15c1.18418,0 2.15,0.96582 2.15,2.15zM49.45,137.6c0,1.18418 -0.96582,2.15 -2.15,2.15c-1.18418,0 -2.15,-0.96582 -2.15,-2.15c0,-1.18418 0.96582,-2.15 2.15,-2.15c1.18418,0 2.15,0.96582 2.15,2.15zM58.05,137.6c0,1.18418 -0.96582,2.15 -2.15,2.15c-1.18418,0 -2.15,-0.96582 -2.15,-2.15c0,-1.18418 0.96582,-2.15 2.15,-2.15c1.18418,0 2.15,0.96582 2.15,2.15zM66.65,137.6c0,1.18418 -0.96582,2.15 -2.15,2.15c-1.18418,0 -2.15,-0.96582 -2.15,-2.15c0,-1.18418 0.96582,-2.15 2.15,-2.15c1.18418,0 2.15,0.96582 2.15,2.15zM75.25,137.6c0,1.18418 -0.96582,2.15 -2.15,2.15c-1.18418,0 -2.15,-0.96582 -2.15,-2.15c0,-1.18418 0.96582,-2.15 2.15,-2.15c1.18418,0 2.15,0.96582 2.15,2.15zM83.85,137.6c0,1.18418 -0.96582,2.15 -2.15,2.15c-1.18418,0 -2.15,-0.96582 -2.15,-2.15c0,-1.18418 0.96582,-2.15 2.15,-2.15c1.18418,0 2.15,0.96582 2.15,2.15zM92.45,137.6c0,1.18418 -0.96582,2.15 -2.15,2.15c-1.18418,0 -2.15,-0.96582 -2.15,-2.15c0,-1.18418 0.96582,-2.15 2.15,-2.15c1.18418,0 2.15,0.96582 2.15,2.15zM101.05,137.6c0,1.18418 -0.96582,2.15 -2.15,2.15c-1.18418,0 -2.15,-0.96582 -2.15,-2.15c0,-1.18418 0.96582,-2.15 2.15,-2.15c1.18418,0 2.15,0.96582 2.15,2.15zM105.35,137.6c0,-1.18418 0.96582,-2.15 2.15,-2.15c0.20832,0 0.40988,0.02989 0.60061,0.0856c-0.3909,1.33777 -0.60061,2.75206 -0.60061,4.2144c-1.18418,0 -2.15,-0.96582 -2.15,-2.15z"></path></g><g><g id="Layer_1" fill="#ffffff"><path d="M161.25,129v-6.45c0,-10.6683 -8.6817,-19.35 -19.35,-19.35c-10.6683,0 -19.35,8.6817 -19.35,19.35v6.45c-5.92755,0 -10.75,4.82245 -10.75,10.75v21.5c0,5.92755 4.82245,10.75 10.75,10.75h38.7c5.92755,0 10.75,-4.82245 10.75,-10.75v-21.5c0,-5.92755 -4.82245,-10.75 -10.75,-10.75zM126.85,122.55c0,-8.299 6.751,-15.05 15.05,-15.05c8.299,0 15.05,6.751 15.05,15.05v6.45h-30.1zM167.7,161.25c0,3.5561 -2.8939,6.45 -6.45,6.45h-38.7c-3.5561,0 -6.45,-2.8939 -6.45,-6.45v-21.5c0,-3.5561 2.8939,-6.45 6.45,-6.45h38.7c3.5561,0 6.45,2.8939 6.45,6.45zM146.2,146.2c0,1.5867 -0.87075,2.9584 -2.15,3.70445v7.04555c0,1.1868 -0.9632,2.15 -2.15,2.15c-1.1868,0 -2.15,-0.9632 -2.15,-2.15v-7.04555c-1.27925,-0.7439 -2.15,-2.1156 -2.15,-3.70445c0,-2.37575 1.92425,-4.3 4.3,-4.3c2.37575,0 4.3,1.92425 4.3,4.3z"></path></g><g id="Layer_1" fill="#000000" opacity="0"><path d="M165.55,125.32565v-2.77565c0,-13.03975 -10.61025,-23.65 -23.65,-23.65c-13.03975,0 -23.65,10.61025 -23.65,23.65v2.77565c-6.2092,1.85545 -10.75,7.6196 -10.75,14.42435v21.5c0,8.299 6.751,15.05 15.05,15.05h38.7c8.299,0 15.05,-6.751 15.05,-15.05v-21.5c0,-6.80475 -4.5408,-12.5689 -10.75,-14.42435z"></path></g></g></g></svg>