<svg xmlns="http://www.w3.org/2000/svg" x="0px" y="0px"
width="20" height="20"
viewBox="0 0 172 172"
style=" fill:#000000;"><g fill="none" fill-rule="nonzero" stroke="none" stroke-width="1" stroke-linecap="butt" stroke-linejoin="miter" stroke-miterlimit="10" stroke-dasharray="" stroke-dashoffset="0" font-family="none" font-weight="none" font-size="none" text-anchor="none" style="mix-blend-mode: normal"><path d="M0,172v-172h172v172z" fill="none"></path><g fill="#ffffff"><path d="M85.87906,3.44c-0.72811,0.02595 -1.42917,0.28238 -2.00219,0.73234l-68.66562,53.74328l-10.45437,8.17672c-0.96771,0.7584 -1.45721,1.97553 -1.28407,3.19276c0.17315,1.21723 0.98263,2.24958 2.12344,2.70805c1.14081,0.45847 2.43956,0.27339 3.40688,-0.4855l4.75687,-3.72219v90.45453c0.00019,1.89978 1.54022,3.43981 3.44,3.44h137.6c1.89978,-0.00019 3.43981,-1.54022 3.44,-3.44v-90.45453l4.75687,3.72219c0.96733,0.75884 2.26605,0.94389 3.40682,0.48541c1.14077,-0.45847 1.95024,-1.4908 2.1234,-2.708c0.17316,-1.2172 -0.3163,-2.43431 -1.28396,-3.19273l-10.26625,-8.02891l-68.85375,-53.89109c-0.63824,-0.50113 -1.43308,-0.76052 -2.24406,-0.73234zM86,11.24719l65.36,51.14984v92.40297h-130.72v-92.40297zM102.82375,51.6c-7.05753,0 -14.06758,2.80317 -19.5314,8.06922c-0.07251,0.06861 -0.14201,0.14035 -0.20828,0.215c0.15927,-0.1828 -0.71021,0.7406 -1.77375,1.82078c-1.06355,1.08018 -2.52197,2.55079 -4.23953,4.27985c-3.43513,3.45811 -7.91206,7.95119 -12.3961,12.44984c-4.48404,4.49866 -8.97095,9.00167 -12.4364,12.49016c-1.73273,1.74424 -3.21231,3.23578 -4.30672,4.34703c-1.03408,1.05 -1.55171,1.57122 -1.98203,2.04922c-10.77675,10.83856 -10.7891,28.3948 0.0336,39.05609c5.30373,5.3122 12.36117,8.10281 19.57172,8.10281c7.21671,0 14.0992,-2.83364 19.5314,-8.06922c0.01583,-0.01553 0.03151,-0.0312 0.04703,-0.04703c1.31773,-1.32121 35.76825,-35.88225 37.45703,-37.57797c10.80598,-10.84118 10.81777,-28.42834 -0.02688,-39.09641c-0.00669,-0.00675 -0.01341,-0.01346 -0.02015,-0.02015c-5.46141,-5.26743 -12.50282,-8.06922 -19.71953,-8.06922zM102.82375,58.48c5.4502,0 10.70593,2.061 14.92906,6.1275c8.15088,8.03293 8.16533,21.09511 -0.0336,29.32063c-0.00224,0 -0.00448,0 -0.00672,0c-0.64436,0.647 -7.85067,7.88231 -14.51922,14.57297l-29.38781,-29.4886c2.8619,-2.87216 5.88971,-5.90146 8.14985,-8.17672c1.72115,-1.73266 3.18248,-3.20594 4.25969,-4.3c0.96828,-0.98343 1.40454,-1.4222 1.84765,-1.91485c4.2301,-4.07698 9.51719,-6.14094 14.7611,-6.14094zM68.95453,83.89031l29.3811,29.48187c-8.64566,8.67417 -17.36556,17.42426 -18.02641,18.08688c-4.26172,4.10746 -9.29813,6.14094 -14.75437,6.14094c-5.45625,0 -10.70392,-2.07192 -14.71406,-6.0939c-0.00669,-0.00675 -0.01341,-0.01347 -0.02015,-0.02016c-8.16475,-8.03177 -8.18344,-21.10388 0.02015,-29.33406c0.04848,-0.04786 0.09553,-0.09715 0.14109,-0.14781c-0.06808,0.07688 0.77321,-0.80359 1.85438,-1.90141c1.08117,-1.09781 2.55064,-2.58618 4.27985,-4.32687c3.29331,-3.3152 7.57021,-7.6033 11.83844,-11.88547zM65.36,92.88c-1.89888,0 -3.44,1.54112 -3.44,3.44c0,1.89888 1.54112,3.44 3.44,3.44c1.89888,0 3.44,-1.54112 3.44,-3.44c0,-1.89888 -1.54112,-3.44 -3.44,-3.44zM55.04,103.2c-1.89888,0 -3.44,1.54112 -3.44,3.44c0,1.89888 1.54112,3.44 3.44,3.44c1.89888,0 3.44,-1.54112 3.44,-3.44c0,-1.89888 -1.54112,-3.44 -3.44,-3.44zM75.68,103.2c-1.89888,0 -3.44,1.54112 -3.44,3.44c0,1.89888 1.54112,3.44 3.44,3.44c1.89888,0 3.44,-1.54112 3.44,-3.44c0,-1.89888 -1.54112,-3.44 -3.44,-3.44zM65.36,113.52c-1.89888,0 -3.44,1.54112 -3.44,3.44c0,1.89888 1.54112,3.44 3.44,3.44c1.89888,0 3.44,-1.54112 3.44,-3.44c0,-1.89888 -1.54112,-3.44 -3.44,-3.44zM86,113.52c-1.89888,0 -3.44,1.54112 -3.44,3.44c0,1.89888 1.54112,3.44 3.44,3.44c1.89888,0 3.44,-1.54112 3.44,-3.44c0,-1.89888 -1.54112,-3.44 -3.44,-3.44zM55.04,123.84c-1.89888,0 -3.44,1.54112 -3.44,3.44c0,1.89888 1.54112,3.44 3.44,3.44c1.89888,0 3.44,-1.54112 3.44,-3.44c0,-1.89888 -1.54112,-3.44 -3.44,-3.44zM75.68,123.84c-1.89888,0 -3.44,1.54112 -3.44,3.44c0,1.89888 1.54112,3.44 3.44,3.44c1.89888,0 3.44,-1.54112 3.44,-3.44c0,-1.89888 -1.54112,-3.44 -3.44,-3.44z"></path></g></g></svg>