<svg xmlns="http://www.w3.org/2000/svg" x="0px" y="0px"
width="20" height="20"
viewBox="0 0 172 172"
style=" fill:#000000;"><g fill="none" fill-rule="nonzero" stroke="none" stroke-width="1" stroke-linecap="butt" stroke-linejoin="miter" stroke-miterlimit="10" stroke-dasharray="" stroke-dashoffset="0" font-family="none" font-weight="none" font-size="none" text-anchor="none" style="mix-blend-mode: normal">
<path d="M0,172v-172h172v172z" fill="none"></path><g fill="#ffffff"><path d="M120.4,19.35c-18.9673,0 -34.4,15.4327 -34.4,34.4c0,18.9673 15.4327,34.4 34.4,34.4c18.9673,0 34.4,-15.4327 34.4,-34.4c0,-18.9673 -15.4327,-34.4 -34.4,-34.4zM120.4,23.65c16.598,0 30.1,13.502 30.1,30.1c0,16.598 -13.502,30.1 -30.1,30.1c-16.598,0 -30.1,-13.502 -30.1,-30.1c0,-16.598 13.502,-30.1 30.1,-30.1zM119.08984,36.16367v2.80928c-5.7362,0.48805 -9.19629,3.63948 -9.19629,8.44043c0,4.0678 2.5459,6.83646 7.24365,7.99531l1.95264,0.46611v8.66719c-2.82725,-0.3053 -4.67995,-1.93282 -4.8627,-4.21182h-4.96348c0.01935,4.7988 3.76112,8.01194 9.82197,8.37744v2.62871h2.80928v-2.64551c6.1232,-0.5074 9.64141,-3.66108 9.64141,-8.70498c0.00215,-4.29355 -2.45933,-6.91739 -7.62578,-8.11709l-2.01562,-0.42832v-8.23467c2.44025,0.32465 4.14742,1.99174 4.20762,4.08584h4.86269c-0.10105,-4.57735 -3.63941,-7.83275 -9.07031,-8.31865v-2.80928zM119.08984,43.18057v7.66778c-2.7262,-0.56975 -4.16982,-1.91108 -4.16982,-3.86328c0,-2.0769 1.75107,-3.66044 4.16982,-3.80449zM121.89492,56.40391c3.21425,0.62995 4.67793,1.92889 4.67793,4.10684c0,2.40155 -1.70663,3.88629 -4.67793,4.06904zM49.45,86c-2.11154,0 -4.12462,0.40493 -5.97969,1.096c-0.06413,0.00938 0.01818,-0.03126 -0.22676,0.05039l0.05459,-0.02099c-4.64514,1.41446 -26.67344,7.55439 -26.67344,7.55439c-0.76639,0.18192 -1.37197,0.76834 -1.57843,1.52848c-0.20646,0.76015 0.01924,1.57234 0.58829,2.11698c0.56905,0.54464 1.39036,0.73454 2.14073,0.49496c0,0 21.52723,-5.99093 26.62725,-7.5376c0.15215,-0.02315 0.30138,-0.06257 0.44512,-0.11758c1.44208,-0.55307 2.98231,-0.86504 4.60234,-0.86504c2.36119,0 4.55577,0.64061 6.4626,1.75107c0.07465,0.04237 0.15178,0.08023 0.23096,0.11338c0.01655,0.00774 0.03373,0.01741 0.05039,0.02519c13.54894,6.39656 41.06534,20.17357 41.13974,20.21084l0.0084,0.0084c-0.12666,-0.06762 -0.11425,-0.05951 0.14697,0.10918c0.0478,0.03134 0.09683,0.06075 0.14697,0.08818c2.03299,1.09607 3.41397,3.17961 3.41397,5.64375c0,1.2892 -0.38041,2.46929 -1.03301,3.48115c-1.89169,2.94404 -5.54832,3.56604 -8.96953,1.91904c-0.04002,-0.01945 -0.08063,-0.03766 -0.12178,-0.05459l-1.46553,-0.59629c-0.71687,-0.31914 -1.55067,-0.22243 -2.17545,0.25233c-0.62478,0.47476 -0.94132,1.25218 -0.82588,2.02834c0.11544,0.77616 0.64453,1.4278 1.38043,1.70019l1.46553,0.59629l-0.12178,-0.05459c4.32595,2.08254 9.60504,1.61508 12.98818,-1.67549l2.33897,1.5999c0.59985,0.40945 1.36585,0.48842 2.03662,0.20996l35.27764,-14.58389l-0.89443,-1.78467c0.50837,1.01501 1.71821,1.45997 2.76309,1.01621c0.76924,-0.32508 1.61096,-0.50391 2.50693,-0.50391c3.58724,0 6.45,2.86276 6.45,6.45c0,2.4485 -1.36482,4.52585 -3.38037,5.63115c-0.98097,0.53722 -1.3863,1.73677 -0.93222,2.75889l-0.80625,-1.81406l-42.38691,22.49941c0.07149,-0.03502 0.00882,-0.00473 -0.08818,0.02519c-0.10074,0.03192 -0.19899,0.07122 -0.29395,0.11758c-1.15922,0.5584 -2.39759,0.88184 -3.71211,0.88184c-1.26631,0 -2.45713,-0.29156 -3.56934,-0.80205c-0.04957,-0.02291 -0.1,-0.04392 -0.15117,-0.06299c-0.16146,-0.0598 -0.18877,-0.07168 -0.07559,-0.02099l-53.41826,-22.596c-0.48138,-0.20312 -1.02025,-0.22402 -1.51592,-0.05879l-25.8,8.6c-1.12711,0.3757 -1.73625,1.59398 -1.36055,2.72109c0.3757,1.12711 1.59398,1.73625 2.72109,1.36055l25.03154,-8.34385l52.61201,22.25166c0.32436,0.14743 0.39308,0.15071 0.31494,0.12178c1.57664,0.70101 3.33724,1.12959 5.21123,1.12959c2.02658,0 3.915,-0.50557 5.57656,-1.30596c0.12964,-0.04597 0.24436,-0.07554 0.40732,-0.15537c0.02118,-0.01085 0.04218,-0.02205 0.06299,-0.03359l44.22197,-23.46943c0.35464,-0.19087 0.64855,-0.4775 0.84824,-0.82725c2.77594,-1.93469 4.78291,-4.96385 4.78291,-8.6084c0,-5.91146 -4.83854,-10.75 -10.75,-10.75c-1.17645,0 -2.26543,0.31974 -3.32998,0.67188h-0.0042c-0.28668,-0.00166 -0.5708,0.05402 -0.83564,0.16377l-36.05449,14.90303l-1.76367,-1.20517c0.48858,-1.22559 1.13799,-2.38764 1.13799,-3.7835c0,-4.08476 -2.32253,-7.62501 -5.67314,-9.43145l0.14697,0.08818c0.07159,0.04625 -0.07108,-0.08802 -0.45352,-0.29395c-0.01805,-0.01006 -0.03625,-0.01986 -0.05459,-0.02939c0,0 -27.6589,-13.85379 -41.33291,-20.30742c-0.01531,-0.00718 -0.03071,-0.01418 -0.04619,-0.021c-0.2354,-0.10462 -0.25894,-0.10527 -0.14278,-0.05879c-2.46942,-1.3791 -5.31271,-2.19619 -8.34385,-2.19619zM62.35,113.95c-1.18741,0 -2.15,0.96259 -2.15,2.15c0,1.18741 0.96259,2.15 2.15,2.15c1.18741,0 2.15,-0.96259 2.15,-2.15c0,-1.18741 -0.96259,-2.15 -2.15,-2.15zM68.8,116.1c-1.18741,0 -2.15,0.96259 -2.15,2.15c0,1.18741 0.96259,2.15 2.15,2.15c1.18741,0 2.15,-0.96259 2.15,-2.15c0,-1.18741 -0.96259,-2.15 -2.15,-2.15zM75.25,118.25c-1.18741,0 -2.15,0.96259 -2.15,2.15c0,1.18741 0.96259,2.15 2.15,2.15c1.18741,0 2.15,-0.96259 2.15,-2.15c0,-1.18741 -0.96259,-2.15 -2.15,-2.15zM81.7,120.4c-1.18741,0 -2.15,0.96259 -2.15,2.15c0,1.18741 0.96259,2.15 2.15,2.15c1.18741,0 2.15,-0.96259 2.15,-2.15c0,-1.18741 -0.96259,-2.15 -2.15,-2.15z"></path></g>
</g></svg>