<svg xmlns="http://www.w3.org/2000/svg" x="0px" y="0px"
width="20" height="20"
viewBox="0 0 172 172"
style=" fill:#000000;"><g fill="none" fill-rule="nonzero" stroke="none" stroke-width="1" stroke-linecap="butt" stroke-linejoin="miter" stroke-miterlimit="10" stroke-dasharray="" stroke-dashoffset="0" font-family="none" font-weight="none" font-size="none" text-anchor="none" style="mix-blend-mode: normal">
<path d="M0,172v-172h172v172z" fill="none"></path><path d="" fill="none"></path><g fill="#ffffff"><path d="M68.67235,10.32c-1.84975,0.06887 -3.31344,1.58897 -3.31235,3.44v30.96h-44.72c-5.6587,0 -10.32,4.6613 -10.32,10.32v103.2c0.00004,1.19226 0.61737,2.29951 1.63154,2.92636c1.01418,0.62685 2.2806,0.68392 3.34705,0.15083l5.34141,-2.67406l5.34141,2.67406c0.96857,0.48429 2.10862,0.48429 3.07719,0l5.34141,-2.67406l5.3414,2.67406c0.96857,0.48429 2.10862,0.48429 3.07719,0l5.3414,-2.67406l5.3414,2.67406c0.96857,0.48429 2.10862,0.48429 3.07719,0l5.3414,-2.67406l5.3414,2.67406c0.96857,0.48429 2.10862,0.48429 3.07719,0l5.3414,-2.67406l5.3414,2.67406c1.06645,0.53309 2.33287,0.47602 3.34705,-0.15083c1.01418,-0.62685 1.63151,-1.73409 1.63154,-2.92636v-17.2h49.70531h25.97469v-23.1864v-32.74719v-23.1864h-25.97469h-35.94531v-6.88c0,-4.68025 -3.4961,-8.02923 -7.80047,-9.27187c-0.65945,-0.68176 -1.57111,-1.06101 -2.51953,-1.04813h-17.2v-25.39687l1.9014,0.95406c0.96857,0.48429 2.10862,0.48429 3.07719,0l5.3414,-2.67406l5.3414,2.67406c0.96857,0.48429 2.10862,0.48429 3.07719,0l5.3414,-2.67406l5.3414,2.67406c0.96857,0.48429 2.10862,0.48429 3.07719,0l5.3414,-2.67406l5.3414,2.67406c0.96857,0.48429 2.10862,0.48429 3.07719,0l5.3414,-2.67406l5.3414,2.67406c0.96857,0.48429 2.10862,0.48429 3.07719,0l1.9014,-0.95406v35.71688h6.88v-41.28c-0.00004,-1.19226 -0.61737,-2.29951 -1.63154,-2.92636c-1.01418,-0.62685 -2.2806,-0.68392 -3.34705,-0.15083l-5.3414,2.67406l-5.3414,-2.67406c-0.96857,-0.48429 -2.10862,-0.48429 -3.07719,0l-5.3414,2.67406l-5.3414,-2.67406c-0.96857,-0.48429 -2.10862,-0.48429 -3.07719,0l-5.3414,2.67406l-5.3414,-2.67406c-0.96857,-0.48429 -2.10862,-0.48429 -3.07719,0l-5.3414,2.67406l-5.3414,-2.67406c-0.96857,-0.48429 -2.10862,-0.48429 -3.07719,0l-5.3414,2.67406l-5.3414,-2.67406c-0.51617,-0.25886 -1.08919,-0.38363 -1.66625,-0.36281zM82.56,30.96c-1.24059,-0.01754 -2.39452,0.63425 -3.01993,1.7058c-0.62541,1.07155 -0.62541,2.39684 0,3.46839c0.62541,1.07155 1.77935,1.72335 3.01993,1.7058h17.2c1.24059,0.01754 2.39452,-0.63425 3.01993,-1.7058c0.62541,-1.07155 0.62541,-2.39684 0,-3.46839c-0.62541,-1.07155 -1.77935,-1.72335 -3.01993,-1.7058zM116.96,30.96c-1.24059,-0.01754 -2.39452,0.63425 -3.01993,1.7058c-0.62541,1.07155 -0.62541,2.39684 0,3.46839c0.62541,1.07155 1.77935,1.72335 3.01993,1.7058h6.88c1.24059,0.01754 2.39452,-0.63425 3.01993,-1.7058c0.62541,-1.07155 0.62541,-2.39684 0,-3.46839c-0.62541,-1.07155 -1.77935,-1.72335 -3.01993,-1.7058zM116.96,44.72c-1.24059,-0.01754 -2.39452,0.63425 -3.01993,1.7058c-0.62541,1.07155 -0.62541,2.39684 0,3.46839c0.62541,1.07155 1.77935,1.72335 3.01993,1.7058h6.88c1.24059,0.01754 2.39452,-0.63425 3.01993,-1.7058c0.62541,-1.07155 0.62541,-2.39684 0,-3.46839c-0.62541,-1.07155 -1.77935,-1.72335 -3.01993,-1.7058zM20.64,51.6h59.9111c-0.47138,1.17653 -1.4311,2.10408 -1.4311,3.44v26.3375c-0.12559,0.52562 -0.12559,1.07344 0,1.59906v37.00687c-0.12667,0.52777 -0.12667,1.07801 0,1.60578v31.08765l-1.9014,-0.95406c-0.96857,-0.48429 -2.10862,-0.48429 -3.07719,0l-5.3414,2.67406l-5.3414,-2.67406c-0.96857,-0.48429 -2.10862,-0.48429 -3.07719,0l-5.3414,2.67406l-5.3414,-2.67406c-0.96857,-0.48429 -2.10862,-0.48429 -3.07719,0l-5.3414,2.67406l-5.3414,-2.67406c-0.96857,-0.48429 -2.10862,-0.48429 -3.07719,0l-5.34141,2.67406l-5.34141,-2.67406c-0.96857,-0.48429 -2.10862,-0.48429 -3.07719,0l-1.90141,0.95406v-97.63687c0,-1.9437 1.4963,-3.44 3.44,-3.44zM89.44,51.6c1.9437,0 3.44,1.4963 3.44,3.44v6.88h-6.88v-6.88c0,-1.9437 1.4963,-3.44 3.44,-3.44zM44.72,68.8v7.63922c-5.50388,0.89512 -9.59489,3.17687 -11.47562,6.04688c-2.29625,3.50408 -2.28437,7.13531 -2.28437,7.13531c0,4.91607 2.95496,8.71038 6.44328,10.91125c3.48832,2.20087 7.56273,3.4137 11.40844,4.66953c3.8457,1.25584 7.44405,2.55107 9.74219,4.15219c2.29813,1.60112 3.3661,3.01429 3.3661,6.04016c0,0 0.01342,1.83399 -1.49828,3.92375c-1.51169,2.08976 -4.45429,4.52172 -12.26172,4.52172c-7.68267,0 -10.53034,-2.69482 -12.13406,-5.26078c-1.60372,-2.56596 -1.62594,-5.05922 -1.62594,-5.05922h-6.88c0,0 -0.02222,4.38674 2.67406,8.70078c2.29447,3.67116 7.36815,6.72882 14.52594,7.71312v7.6661h6.88v-7.5586c7.03357,-0.83933 12.03092,-3.41924 14.39828,-6.69187c2.78831,-3.85456 2.80172,-7.955 2.80172,-7.955c0,-5.18713 -2.80204,-9.24066 -6.3089,-11.6839c-3.50687,-2.44325 -7.64852,-3.77408 -11.54281,-5.04578c-3.8943,-1.27171 -7.55989,-2.48897 -9.87656,-3.95063c-2.31667,-1.46165 -3.23172,-2.55956 -3.23172,-5.09281c0,0 0.01204,-1.62074 1.15563,-3.36609c1.14374,-1.74536 3.15928,-3.69531 9.16437,-3.69531c6.02,0 8.04494,1.92882 9.17781,3.62813c1.13287,1.6993 1.14219,3.25187 1.14219,3.25187h6.88c0,0 0.00929,-3.60743 -2.29781,-7.06813c-1.88877,-2.83315 -5.97316,-5.06756 -11.46219,-5.94609v-7.62578zM86,68.8h49.70531c3.03964,0 3.8127,1.05857 4.95172,3.01672c0.56951,0.97908 1.0664,2.17006 1.59234,3.38625c0.52595,1.21619 0.96134,2.48649 2.27766,3.80281c1.30899,1.30899 2.6104,1.7672 3.89015,2.28437c1.27976,0.51717 2.56248,0.9709 3.64156,1.45797c1.07908,0.48707 1.91141,1.02229 2.30453,1.41765c0.39312,0.39536 0.43672,0.45547 0.43672,0.94062v32.74719c0,0.48515 -0.04358,0.54526 -0.43672,0.94062c-0.39312,0.39536 -1.22545,0.93059 -2.30453,1.41765c-1.07908,0.48707 -2.3618,0.9408 -3.64156,1.45797c-1.27976,0.51717 -2.58117,0.97539 -3.89015,2.28437c-1.31632,1.31632 -1.75171,2.58662 -2.27766,3.80281c-0.52594,1.21619 -1.02284,2.40717 -1.59234,3.38625c-1.13901,1.95815 -1.91208,3.01672 -4.95172,3.01672h-49.70531v-7.9886c2.18483,0.69873 4.48937,1.1086 6.88,1.1086c13.41392,0 24.08,-11.73455 24.08,-25.8c0,-14.06545 -10.66608,-25.8 -24.08,-25.8c-2.39063,0 -4.69517,0.40986 -6.88,1.1086zM146.83156,68.8h7.96844v7.64594c-1.41521,-0.63265 -2.77853,-1.11523 -3.80953,-1.53187c-1.0545,-0.42614 -1.74189,-0.91548 -1.59906,-0.77266c0.14672,0.14672 -0.35491,-0.56716 -0.83312,-1.67297c-0.43103,-0.9967 -0.97712,-2.30163 -1.72672,-3.66844zM92.88,82.56c9.3864,0 17.2,8.28625 17.2,18.92c0,10.63375 -7.8136,18.92 -17.2,18.92c-2.45723,0 -4.76571,-0.57783 -6.88,-1.59906v-34.64187c2.11429,-1.02123 4.42277,-1.59906 6.88,-1.59906zM135.88,92.88c-2.58,0 -4.95282,1.09136 -6.44328,2.76813c-1.49046,1.67676 -2.15672,3.77743 -2.15672,5.83187c0,2.05444 0.66626,4.15511 2.15672,5.83187c1.49046,1.67677 3.86328,2.76813 6.44328,2.76813c2.58,0 4.95282,-1.09136 6.44328,-2.76813c1.49046,-1.67676 2.15672,-3.77743 2.15672,-5.83187c0,-2.05444 -0.66626,-4.15511 -2.15672,-5.83187c-1.49046,-1.67677 -3.86328,-2.76813 -6.44328,-2.76813zM135.88,99.76c0.86,0 1.06718,0.19863 1.29672,0.45687c0.22954,0.25824 0.42328,0.73757 0.42328,1.26313c0,0.52556 -0.19374,1.00489 -0.42328,1.26313c-0.22954,0.25823 -0.43672,0.45687 -1.29672,0.45687c-0.86,0 -1.06718,-0.19864 -1.29672,-0.45687c-0.22954,-0.25824 -0.42328,-0.73757 -0.42328,-1.26313c0,-0.52556 0.19374,-1.00489 0.42328,-1.26313c0.22954,-0.25823 0.43672,-0.45687 1.29672,-0.45687zM154.8,126.51406v7.64594h-7.96844c0.7496,-1.36681 1.29569,-2.67173 1.72672,-3.66844c0.47821,-1.10581 0.97985,-1.81969 0.83312,-1.67297c-0.14283,0.14283 0.54457,-0.34652 1.59906,-0.77266c1.031,-0.41665 2.39433,-0.89923 3.80953,-1.53187z"></path></g>
</g></svg>