<svg xmlns="http://www.w3.org/2000/svg" x="0px" y="0px"
width="20" height="20"
viewBox="0 0 172 172"
style=" fill:#000000;"><g fill="none" fill-rule="nonzero" stroke="none" stroke-width="1" stroke-linecap="butt" stroke-linejoin="miter" stroke-miterlimit="10" stroke-dasharray="" stroke-dashoffset="0" font-family="none" font-weight="none" font-size="none" text-anchor="none" style="mix-blend-mode: normal"><path d="M0,172v-172h172v172z" fill="none"></path><g fill="#ffffff"><path d="M86,1.49072c-1.77417,0 -3.54834,0.59839 -5.03906,1.78467l-3.7583,3.00244c-12.49268,10.00464 -27.53638,15.85205 -43.50391,16.91235l-9.72119,0.64038c-4.41968,0.29395 -7.78955,4.13623 -7.5166,8.54541l1.84766,31.05322c2.11011,29.25805 15.46362,55.97559 37.60401,75.229l24.79639,21.55249c1.51172,1.31226 3.40137,1.96314 5.29102,1.96314c1.88965,0 3.7793,-0.65088 5.29102,-1.96314l24.78589,-21.55249c22.14038,-19.25342 35.5044,-45.97095 37.6145,-75.2605l1.84766,-31.01123c0.27295,-4.41968 -3.09692,-8.25146 -7.5166,-8.55591l-9.72119,-0.64038c-15.95703,-1.0603 -31.01123,-6.90771 -43.50391,-16.90185l-3.7583,-3.01294c-1.49072,-1.18628 -3.26489,-1.77417 -5.03906,-1.78467zM86,6.88672c0.59839,0 1.18628,0.18897 1.67969,0.58789l3.7583,3.00244c13.36401,10.68701 29.43652,16.93335 46.50635,18.07764l9.72119,0.64038c1.46973,0.10498 2.60352,1.38574 2.50903,2.85547l-1.85815,30.97974c-1.40674,19.58936 -8.13599,37.96094 -19.31641,53.50854v-0.97632c0,-1.49072 -1.20728,-2.6875 -2.6875,-2.6875c-1.48022,0 -2.6875,1.19678 -2.6875,2.6875v5.375c0,0.65088 0.26245,1.22827 0.65088,1.69018c-3.55884,4.25171 -7.45361,8.26196 -11.71582,11.95728l-24.79639,21.57349c-1.00781,0.87134 -2.51953,0.87134 -3.52734,0l-24.79639,-21.57349c-4.26221,-3.69531 -8.15698,-7.70557 -11.70532,-11.95728c0.37793,-0.46191 0.64038,-1.0393 0.64038,-1.69018v-5.375c0,-1.49072 -1.20728,-2.6875 -2.6875,-2.6875c-1.48022,0 -2.6875,1.19678 -2.6875,2.6875v0.98682c-11.18042,-15.54761 -17.90967,-33.91919 -19.31641,-53.47705l-1.85815,-31.02173c-0.09448,-1.46973 1.03931,-2.75049 2.50903,-2.85547l9.72119,-0.64038c17.06983,-1.14429 33.14233,-7.39062 46.50635,-18.07764l3.7583,-3.00244c0.49341,-0.39892 1.0918,-0.58789 1.67969,-0.58789zM86,14.57129c-1.0813,0 -2.1626,0.32544 -3.07593,0.96582l-6.91821,4.8291c-11.65283,8.15698 -25.31079,12.97559 -39.50415,13.93091l-1.74267,0.10498c-1.48022,0.10498 -2.60352,1.37524 -2.50903,2.85547c0.09448,1.42773 1.28076,2.51953 2.6875,2.51953c0.05249,0 0.11548,0 0.17847,-0.0105l1.74268,-0.11548c15.16968,-1.00781 29.77246,-6.15185 42.23364,-14.87573l6.90771,-4.8291l6.90772,4.8291c7.45361,5.21753 15.66309,9.16479 24.39746,11.71582c1.42773,0.41992 2.91846,-0.39892 3.33838,-1.82666c0.40942,-1.41724 -0.39892,-2.91846 -1.82666,-3.33838c-8.16748,-2.38306 -15.85205,-6.07837 -22.82276,-10.95996l-6.91821,-4.8291c-0.91333,-0.64038 -1.99463,-0.96582 -3.07593,-0.96582zM129.36743,33.63574c-1.46973,-0.22046 -2.83447,0.79785 -3.05493,2.26758c-0.20996,1.46973 0.79785,2.83447 2.26758,3.05493c2.1626,0.31494 4.36719,0.5459 6.56128,0.69287l1.58521,0.11548c0.06299,0 0.11548,0 0.17847,0c1.40674,0 2.59302,-1.0918 2.677,-2.50903c0.10498,-1.48022 -1.01831,-2.76098 -2.49853,-2.86597l-1.58521,-0.09448c-2.04712,-0.14697 -4.10474,-0.36743 -6.13086,-0.66138zM86,44.87915c-8.94434,0 -16.22998,7.28564 -16.22998,16.22998v4.09424c0,3.19141 0.93433,6.55078 2.58252,9.56372c-7.90503,3.30688 -14.08838,10.23559 -15.86255,18.59204c-0.29395,1.45923 0.61939,2.87647 2.06812,3.20191c1.48022,0.29395 2.87646,-0.61939 3.2019,-2.06812c1.50122,-7.04419 6.96021,-12.78662 13.81543,-15.26416c2.79248,2.96045 6.4248,4.89209 10.42456,4.89209c3.99976,0 7.63208,-1.93164 10.42456,-4.89209c6.85523,2.47754 12.31421,8.21997 13.81543,15.26416c0.27295,1.25977 1.39624,2.12061 2.63501,2.12061c0.18897,0 0.37793,0 0.5669,-0.05249c1.44873,-0.29395 2.36206,-1.74268 2.06811,-3.20191c-1.77417,-8.35645 -7.95752,-15.28516 -15.86255,-18.59204c1.64819,-3.01294 2.58252,-6.37232 2.58252,-9.56372v-4.09424c0,-8.94434 -7.28565,-16.22998 -16.22998,-16.22998zM86,50.25415c5.99439,0 10.85498,4.87109 10.85498,10.85498v4.09424c0,2.62451 -0.91333,5.53247 -2.46704,7.92603c-0.22046,0.39892 -0.48291,0.77685 -0.75586,1.12329c-1.20728,1.6167 -2.6875,2.90796 -4.3252,3.68482c-1.0498,0.5144 -2.1521,0.80835 -3.30689,0.80835c-1.15478,0 -2.25708,-0.29395 -3.30689,-0.80835c-2.01562,-0.94482 -3.7583,-2.70849 -5.10205,-4.8081c-1.53272,-2.39355 -2.44604,-5.30152 -2.44604,-7.92603v-4.09424c0,-5.98389 4.86059,-10.85498 10.85498,-10.85498zM59.125,112.875c-1.48022,0 -2.6875,1.19678 -2.6875,2.6875v5.375c0,1.49072 1.20728,2.6875 2.6875,2.6875c1.48022,0 2.6875,-1.19678 2.6875,-2.6875v-5.375c0,-1.49072 -1.20728,-2.6875 -2.6875,-2.6875zM72.5625,112.875c-1.48022,0 -2.6875,1.19678 -2.6875,2.6875v5.375c0,1.49072 1.20728,2.6875 2.6875,2.6875c1.48022,0 2.6875,-1.19678 2.6875,-2.6875v-5.375c0,-1.49072 -1.20728,-2.6875 -2.6875,-2.6875zM86,112.875c-1.48022,0 -2.6875,1.19678 -2.6875,2.6875v5.375c0,1.49072 1.20728,2.6875 2.6875,2.6875c1.48022,0 2.6875,-1.19678 2.6875,-2.6875v-5.375c0,-1.49072 -1.20728,-2.6875 -2.6875,-2.6875zM99.4375,112.875c-1.48022,0 -2.6875,1.19678 -2.6875,2.6875v5.375c0,1.49072 1.20728,2.6875 2.6875,2.6875c1.48022,0 2.6875,-1.19678 2.6875,-2.6875v-5.375c0,-1.49072 -1.20728,-2.6875 -2.6875,-2.6875zM112.875,112.875c-1.48022,0 -2.6875,1.19678 -2.6875,2.6875v5.375c0,1.49072 1.20728,2.6875 2.6875,2.6875c1.48022,0 2.6875,-1.19678 2.6875,-2.6875v-5.375c0,-1.49072 -1.20728,-2.6875 -2.6875,-2.6875z"></path></g></g></svg>