<svg xmlns="http://www.w3.org/2000/svg" x="0px" y="0px"
width="20" height="20"
viewBox="0 0 172 172"
style=" fill:#000000;"><g fill="none" fill-rule="nonzero" stroke="none" stroke-width="1" stroke-linecap="butt" stroke-linejoin="miter" stroke-miterlimit="10" stroke-dasharray="" stroke-dashoffset="0" font-family="none" font-weight="none" font-size="none" text-anchor="none" style="mix-blend-mode: normal"><path d="M0,172v-172h172v172z" fill="none"></path><g id="original-icon" fill="#ffffff" opacity="0" visibility="hidden"><path d="M20.64,6.88v158.24h3.44h127.28v-158.24zM27.52,13.76h116.96v144.48h-116.96zM44.72,37.84v6.88h82.56v-6.88zM44.72,86v6.88h13.76v-6.88zM68.8,86v6.88h58.48v-6.88zM44.72,106.64v6.88h13.76v-6.88zM68.8,106.64v6.88h58.48v-6.88zM44.72,127.28v6.88h13.76v-6.88zM68.8,127.28v6.88h58.48v-6.88z"></path></g><g id="subtracted-icon" fill="#ffffff"><path d="M151.36,6.88v85.01032c-2.1479,-1.10467 -4.45689,-1.93217 -6.88,-2.43721l0,-75.69311h-116.96v144.48h73.54v6.32c0,0.18754 0.00359,0.37423 0.01071,0.56h-80.43071v-158.24zM127.28,37.84v6.88h-82.56v-6.88zM58.48,86v6.88h-13.76v-6.88zM127.28,86l0,5.47636c-0.89405,0.42169 -1.76223,0.8906 -2.60134,1.40364h-55.87866v-6.88zM58.48,106.64v6.88h-13.76v-6.88zM68.8,113.52v-6.88l44.43854,0c-0.83305,2.17165 -1.40535,4.47771 -1.67733,6.88zM58.48,127.28v6.88h-13.76v-6.88zM68.8,134.16v-6.88h32.51151c-0.16489,0.82583 -0.25151,1.67425 -0.25151,2.536l0,4.344zM145.78,116.4l-1.3,0v-3.66348c0.70854,1.06247 1.17783,2.31958 1.3,3.66348z"></path></g><g><g fill="#ffffff"><g id="Слой_2" font-family="Inter, sans-serif" font-weight="400" font-size="16" text-anchor="start" visibility="hidden"></g><g id="Android_x5F_4" font-family="Inter, sans-serif" font-weight="400" font-size="16" text-anchor="start" visibility="hidden"></g><g id="Android_x5F_5" font-family="Inter, sans-serif" font-weight="400" font-size="16" text-anchor="start" visibility="hidden"></g><g id="Windows_x5F_8" font-family="Inter, sans-serif" font-weight="400" font-size="16" text-anchor="start" visibility="hidden"></g><g id="Windows_x5F_10" font-family="Inter, sans-serif" font-weight="400" font-size="16" text-anchor="start" visibility="hidden"></g><g id="Color" font-family="Inter, sans-serif" font-weight="400" font-size="16" text-anchor="start" visibility="hidden"></g><g id="IOS" font-family="Inter, sans-serif" font-weight="400" font-size="16" text-anchor="start" visibility="hidden"></g><g id="IOS_copy"><path d="M163.324,123.28h-3.784v-6.192c0,-11.696 -9.288,-21.328 -20.64,-21.328c-11.352,0 -20.64,9.632 -20.64,21.328v6.192h-3.784c-3.784,0 -6.536,3.096 -6.536,6.536v34.744c0,3.784 2.752,6.88 6.536,6.88h48.848c3.44,0 6.536,-3.096 6.536,-6.536v-35.088c0,-3.44 -2.752,-6.536 -6.536,-6.536zM125.14,117.088c0,-7.912 6.192,-14.448 13.76,-14.448c7.568,0 13.76,6.536 13.76,14.448v6.192h-27.52zM162.98,164.56h-48.16v-34.4h48.16zM141.996,148.736v4.472c0,1.72 -1.376,3.096 -3.096,3.096c-1.72,0 -3.096,-1.376 -3.096,-3.096v-4.472c-1.032,-1.032 -1.72,-2.064 -1.72,-3.44c0,-2.752 2.064,-4.816 4.816,-4.816c2.752,0 4.816,2.064 4.816,4.816c0,1.376 -0.688,2.408 -1.72,3.44z"></path></g></g><g fill="#000000" opacity="0"><g id="IOS" font-family="Inter, sans-serif" font-weight="400" font-size="16" text-anchor="start" visibility="hidden"></g><g id="IOS_copy"><path d="M114.476,178.32h48.848c7.224,0 13.416,-6.192 13.416,-13.416v-35.088c0,-6.536 -4.472,-11.696 -10.32,-13.072c0,-15.48 -12.384,-27.864 -27.52,-27.864c-15.136,0 -27.52,12.384 -27.52,27.864c-5.848,1.376 -10.32,6.88 -10.32,13.072v34.744c0,7.568 5.848,13.76 13.416,13.76zM138.9,109.52c3.44,0 6.536,3.096 6.88,6.88h-13.76c0.344,-3.784 3.44,-6.88 6.88,-6.88z"></path></g></g></g></g></svg>