<svg xmlns="http://www.w3.org/2000/svg" x="0px" y="0px"
width="20" height="20"
viewBox="0 0 172 172"
style=" fill:#000000;"><g fill="none" fill-rule="nonzero" stroke="none" stroke-width="1" stroke-linecap="butt" stroke-linejoin="miter" stroke-miterlimit="10" stroke-dasharray="" stroke-dashoffset="0" font-family="none" font-weight="none" font-size="none" text-anchor="none" style="mix-blend-mode: normal">
<path d="M0,172v-172h172v172z" fill="none"></path><g fill="#ffffff"><path d="M24.08,13.76c-5.6587,0 -10.32,4.6613 -10.32,10.32v13.45765c-0.12873,0.62751 -3.44,16.81474 -3.44,26.10235c0,4.74149 0.91512,9.28303 3.42656,12.90672c0.00458,0.00661 0.00884,0.01356 0.01344,0.02015v71.35313c0,5.68976 4.63024,10.32 10.32,10.32h9.74219c0.37149,0.0614 0.75054,0.0614 1.12203,0h29.83797c0.37149,0.0614 0.75054,0.0614 1.12203,0h29.97235c-0.91504,-2.09496 -0.76691,-4.56902 0.56437,-6.56422l0.215,-0.31578h-27.85594v-58.48h-37.84v58.48h-6.88c-1.89888,0 -3.44,-1.54112 -3.44,-3.44v-66.22672c1.58602,0.55046 3.31314,0.86672 5.16,0.86672c4.59292,0 8.77942,-1.68827 12.04,-4.42094c3.26058,2.73267 7.44708,4.42094 12.04,4.42094c4.59292,0 8.77942,-1.68827 12.04,-4.42094c3.26058,2.73267 7.44708,4.42094 12.04,4.42094c4.59292,0 8.77942,-1.68827 12.04,-4.42094c3.26058,2.73267 7.44708,4.42094 12.04,4.42094c4.59292,0 8.77942,-1.68827 12.04,-4.42094c3.26058,2.73267 7.44708,4.42094 12.04,4.42094c4.59292,0 8.77942,-1.68827 12.04,-4.42094c3.26058,2.73267 7.44708,4.42094 12.04,4.42094c1.84686,0 3.57398,-0.31626 5.16,-0.86672v15.22469l0.40985,-0.30234c1.21776,-0.88752 2.64428,-1.33031 4.05812,-1.33031c0.82216,0 1.63803,0.16119 2.41203,0.45015v-19.1686c0.00459,-0.0066 0.00886,-0.01355 0.01344,-0.02015c2.51144,-3.62369 3.42656,-8.16523 3.42656,-12.90672c0,-9.28761 -3.31126,-25.47484 -3.44,-26.10235v-13.45765c0,-5.6587 -4.6613,-10.32 -10.32,-10.32zM24.08,20.64h123.84c1.9437,0 3.44,1.4963 3.44,3.44v10.32h-40.74922c-0.19315,-0.03228 -0.3887,-0.04802 -0.58453,-0.04703c-0.16665,0.00361 -0.33282,0.01933 -0.49719,0.04703h-22.99828c-0.19315,-0.03228 -0.3887,-0.04802 -0.58453,-0.04703c-0.16665,0.00361 -0.33282,0.01933 -0.49719,0.04703h-22.99828c-0.19315,-0.03228 -0.3887,-0.04802 -0.58453,-0.04703c-0.16665,0.00361 -0.33282,0.01933 -0.49719,0.04703h-40.72906v-10.32c0,-1.9437 1.4963,-3.44 3.44,-3.44zM27.52,24.08c-1.89544,0 -3.44,1.54456 -3.44,3.44c0,1.89544 1.54456,3.44 3.44,3.44c1.89544,0 3.44,-1.54456 3.44,-3.44c0,-1.89544 -1.54456,-3.44 -3.44,-3.44zM37.84,24.08c-1.89544,0 -3.44,1.54456 -3.44,3.44c0,1.89544 1.54456,3.44 3.44,3.44c1.89544,0 3.44,-1.54456 3.44,-3.44c0,-1.89544 -1.54456,-3.44 -3.44,-3.44zM48.16,24.08c-1.89544,0 -3.44,1.54456 -3.44,3.44c0,1.89544 1.54456,3.44 3.44,3.44c1.89544,0 3.44,-1.54456 3.44,-3.44c0,-1.89544 -1.54456,-3.44 -3.44,-3.44zM20.20328,41.28h14.19672v30.57031c-2.19275,2.32533 -5.17086,3.82969 -8.6,3.82969c-3.34185,0 -5.02393,-1.07696 -6.39625,-3.05703c-1.37232,-1.98007 -2.20375,-5.17949 -2.20375,-8.98297c0,-6.78219 2.41479,-19.224 3.00328,-22.36zM41.28,41.28h17.2v30.59047c-2.19485,2.31724 -5.17526,3.80953 -8.6,3.80953c-3.42474,0 -6.40515,-1.49229 -8.6,-3.80953zM65.36,41.28h17.2v30.59047c-2.19485,2.31724 -5.17526,3.80953 -8.6,3.80953c-3.42474,0 -6.40515,-1.49229 -8.6,-3.80953zM89.44,41.28h17.2v30.57031c-2.19275,2.32533 -5.17086,3.82969 -8.6,3.82969c-3.42474,0 -6.40515,-1.49229 -8.6,-3.80953zM113.52,41.28h17.2v30.59047c-2.19444,2.3172 -5.1756,3.80953 -8.6,3.80953c-3.42474,0 -6.40515,-1.49229 -8.6,-3.80953zM137.6,41.28h14.19672c0.58849,3.136 3.00328,15.57781 3.00328,22.36c0,3.80347 -0.83143,7.0029 -2.20375,8.98297c-1.37232,1.98007 -3.0544,3.05703 -6.39625,3.05703c-3.42474,0 -6.40515,-1.49229 -8.6,-3.80953zM127.28,96.32l-2.06265,11.00531c-1.032,0.344 -2.408,0.68934 -3.44,1.37734l-9.29203,-6.53734l-10.32,10.32l6.19469,8.6c-0.344,1.376 -1.03335,2.41337 -1.37735,3.78937l-10.66265,1.72v14.44531l10.66265,1.72c0.344,1.032 0.68935,2.408 1.37735,3.44l-6.19469,9.28531l10.32,10.32l9.29203,-6.18797c1.376,0.688 2.40665,1.03334 3.78265,1.37734l1.72,11.00531h14.10265l2.06266,-10.66265c1.032,-0.344 2.064,-0.68935 3.44,-1.37735l9.29203,6.19469l10.32,-10.32l-6.53735,-8.94937c0.688,-1.376 1.03335,-2.75066 1.37735,-3.78266l10.66265,-2.06265v-14.44531l-11.00531,-1.72c-0.344,-1.032 -0.68934,-2.408 -1.37734,-3.44l6.18797,-9.29203l-9.97063,-9.97734l-8.94937,6.53734c-1.032,-0.688 -2.408,-1.03334 -3.44,-1.37734l-1.72,-11.00531zM37.84,99.76h24.08v51.6h-24.08zM133.12531,103.2h2.75469l1.37735,9.28531l2.06265,0.69203c2.064,0.688 4.12531,1.37331 5.84531,2.40531l2.06937,1.37735l7.90797,-5.84531l1.72,1.72l-5.50265,7.90797l1.03469,1.72c1.032,2.064 1.71731,4.13069 2.40531,6.19469l0.68531,2.06265l9.63469,1.37735v2.74797l-9.28531,2.06937l-0.69203,2.06266c-0.688,2.064 -1.37331,4.12531 -2.40531,5.84531l-1.37735,2.06266l5.84531,7.91469l-2.06266,2.06265l-7.90797,-5.50265l-1.72,1.03469c-2.064,1.032 -4.13069,1.71731 -6.19469,2.40531l-2.06265,0.68531l-1.72,9.63469h-2.75469l-1.37734,-9.28531l-2.06266,-0.69203c-2.064,-0.688 -4.12531,-1.37331 -5.84531,-2.40531l-2.06266,-1.37735l-8.25734,5.50265l-2.06266,-2.06265l5.50266,-7.91469l-1.03469,-1.72c-1.032,-2.064 -1.71731,-4.46797 -2.40531,-6.18797l-0.69203,-2.06266l-9.28531,-1.72v-2.75469l9.63469,-1.72l0.34266,-2.40531c0.344,-1.72 1.03065,-3.78937 2.06265,-5.50937l1.37735,-1.72l-5.50266,-7.90797l2.06266,-2.06266l7.90797,5.50266l1.72,-0.69203c2.408,-1.032 4.47334,-2.05997 6.53734,-2.74797l2.06266,-0.34266zM134.16,120.05735c-7.568,0 -13.76,6.192 -13.76,13.76c0,7.568 6.192,13.76 13.76,13.76c7.568,0 13.76,-5.848 13.76,-13.76c0,-7.568 -6.192,-13.76 -13.76,-13.76zM134.16,127.28c3.784,0 6.88,2.752 6.88,6.88c0,3.784 -3.096,6.88 -6.88,6.88c-3.784,0 -6.88,-3.096 -6.88,-6.88c0,-3.784 3.096,-6.88 6.88,-6.88z"></path></g>
</g></svg>