<svg xmlns="http://www.w3.org/2000/svg" x="0px" y="0px"
width="20" height="20"
viewBox="0 0 172 172"
style=" fill:#000000;"><g fill="none" fill-rule="nonzero" stroke="none" stroke-width="1" stroke-linecap="butt" stroke-linejoin="miter" stroke-miterlimit="10" stroke-dasharray="" stroke-dashoffset="0" font-family="none" font-weight="none" font-size="none" text-anchor="none" style="mix-blend-mode: normal">
<path d="M0,172v-172h172v172z" fill="none"></path><g fill="#ffffff"><path d="M92.88,13.76c-13.55869,0 -23.99756,4.13676 -30.96,10.85078c-6.96244,6.71402 -10.32,15.86243 -10.32,25.26922c0,4.19515 1.33982,8.23028 2.85547,12.16765c-1.61955,1.79169 -3.17733,4.30766 -2.84203,8.33125c0.00523,0.05839 0.01195,0.11664 0.02016,0.17469c0.57532,4.21898 1.79473,7.26281 3.41984,9.39953c0.95822,1.25988 2.08094,2.10989 3.29891,2.70094c0.62884,3.25883 1.46241,6.51456 2.80844,9.13078c1.23972,2.40961 2.69369,3.89959 4.19922,5.42203v13.77344c-1.03862,2.82989 -3.56534,5.02487 -7.71985,7.12859c-4.28814,2.1714 -9.94123,4.05717 -15.67484,6.47016c-5.73362,2.41299 -11.61043,5.37949 -16.29297,10.09828c-4.68254,4.71879 -7.99521,11.27881 -8.46562,19.93453c-0.05156,0.94329 0.28703,1.86628 0.93635,2.55245c0.64932,0.68617 1.55223,1.07515 2.49693,1.07568h68.8v10.32c0.00019,1.89978 1.54022,3.43981 3.44,3.44h75.68c1.89978,-0.00019 3.43981,-1.54022 3.44,-3.44v-72.24c-0.00019,-1.89978 -1.54022,-3.43981 -3.44,-3.44h-58.53375c1.63553,-3.14287 2.98197,-7.02936 3.77594,-10.91797c1.15533,-0.5188 2.39015,-0.54958 3.32578,-1.69313c1.74093,-2.12781 2.87247,-5.19251 3.2586,-9.43984c0.00002,-0.00672 0.00002,-0.01344 0,-0.02016c0.22453,-2.69446 -0.32243,-5.09313 -1.36391,-6.98078c-0.3213,-0.58234 -1.07741,-0.70641 -1.49156,-1.20266c1.79382,-3.51262 2.89001,-7.75902 2.8689,-12.7589c-0.02631,-6.37736 -1.49272,-13.39783 -5.2675,-19.14844c-3.36436,-5.12537 -9.13876,-8.64566 -16.3736,-9.45328l-2.80172,-5.60344c-0.58288,-1.16541 -1.77414,-1.90149 -3.07719,-1.90141zM90.9114,20.94906l2.33141,4.66953c0.58288,1.16541 1.77414,1.90149 3.07719,1.90141c6.43284,0 10.28369,2.74265 13.06125,6.97406c2.77756,4.23141 4.1169,10.10481 4.13875,15.39937c0.02167,5.11945 -1.543,9.79294 -2.70765,11.28078c-0.73704,0.94063 -0.93318,2.19634 -0.5181,3.31692c0.41508,1.12059 1.38192,1.94551 2.55388,2.17901c-0.61037,-0.12209 -0.18001,-0.1226 0.15453,0.48375c0.33313,0.60378 0.64608,1.63958 0.53078,3.06375c-0.30272,3.31352 -1.14628,4.98135 -1.72672,5.69078c-0.58106,0.71019 -0.88583,0.63156 -0.86672,0.63156c-1.70177,0.00124 -3.14693,1.24648 -3.39969,2.92937c-0.55464,3.70058 -2.38572,8.28939 -4.10516,11.20688l-1.46469,2.20375h-9.09047c-1.89978,0.00019 -3.43981,1.54022 -3.44,3.44v55.04h-64.55375c0.94332,-4.9641 2.75389,-8.89913 5.67062,-11.83844c3.64871,-3.67696 8.6724,-6.32599 14.07578,-8.6c5.40339,-2.27401 11.12917,-4.14537 16.11828,-6.67172c4.98911,-2.52635 9.53739,-5.91897 11.3211,-11.38156c0.11195,-0.34501 0.16864,-0.70556 0.16797,-1.06828v-15.48c-0.00009,-1.15014 -0.57492,-2.22416 -1.53187,-2.86219c-0.15979,-0.1065 -2.06516,-2.17124 -3.42656,-4.81735c-1.3614,-2.6461 -2.50719,-5.96768 -2.795,-8.98969c-0.16986,-1.76502 -1.65339,-3.11183 -3.42656,-3.11078c0.688,0 0.16612,0.16378 -0.53078,-0.7525c-0.68483,-0.90042 -1.58461,-2.81173 -2.04922,-6.0536c-0.18029,-2.63449 1.45214,-3.84148 1.56547,-3.91703c1.39454,-0.9293 1.91662,-2.72821 1.23625,-4.25969c-1.75665,-3.966 -2.80172,-7.95435 -2.80172,-11.67719c0,-7.79321 2.69399,-14.9848 8.21703,-20.31078c5.17435,-4.98973 13.23863,-8.20126 24.21437,-8.62016zM96.32,99.76h68.8v65.36h-68.8v-9.74219c0.0614,-0.37149 0.0614,-0.75054 0,-1.12203zM116.96,106.64c-1.24059,-0.01754 -2.39452,0.63425 -3.01993,1.7058c-0.62541,1.07155 -0.62541,2.39684 0,3.46839c0.62541,1.07155 1.77935,1.72335 3.01993,1.7058h27.52c1.24059,0.01754 2.39452,-0.63425 3.01993,-1.7058c0.62541,-1.07155 0.62541,-2.39684 0,-3.46839c-0.62541,-1.07155 -1.77935,-1.72335 -3.01993,-1.7058z"></path></g>
</g></svg>