<svg xmlns="http://www.w3.org/2000/svg" x="0px" y="0px"
width="20" height="20"
viewBox="0 0 172 172"
style=" fill:#000000;"><g fill="none" fill-rule="nonzero" stroke="none" stroke-width="1" stroke-linecap="butt" stroke-linejoin="miter" stroke-miterlimit="10" stroke-dasharray="" stroke-dashoffset="0" font-family="none" font-weight="none" font-size="none" text-anchor="none" style="mix-blend-mode: normal">
<path d="M0,172v-172h172v172z" fill="none"></path><g fill="#ffffff"><path d="M17.2,13.76c-1.89978,0.00019 -3.43981,1.54022 -3.44,3.44v51.6c0.00019,1.89978 1.54022,3.43981 3.44,3.44h20.64v27.52h-2.9361c-0.1891,-0.02703 -0.38013,-0.03827 -0.57109,-0.0336c-0.12818,0.00405 -0.25604,0.01527 -0.38297,0.0336h-16.74984c-1.89978,0.00019 -3.43981,1.54022 -3.44,3.44v33.87594c-0.06364,0.37807 -0.06364,0.76412 0,1.14219v16.05781c-0.18493,1.09772 0.17271,2.21707 0.95985,3.00421c0.78714,0.78714 1.90649,1.14478 3.00421,0.95985h51.07594c1.89978,-0.00019 3.43981,-1.54022 3.44,-3.44v-16.76328c0.04369,-0.31427 0.04369,-0.63307 0,-0.94735v-2.92937h27.52v20.64c0.00019,1.89978 1.54022,3.43981 3.44,3.44h51.6c1.89978,-0.00019 3.43981,-1.54022 3.44,-3.44v-51.6c-0.00019,-1.89978 -1.54022,-3.43981 -3.44,-3.44h-20.64v-27.52h20.64c1.89978,-0.00019 3.43981,-1.54022 3.44,-3.44v-51.6c-0.00019,-1.89978 -1.54022,-3.43981 -3.44,-3.44h-51.6c-1.89978,0.00019 -3.43981,1.54022 -3.44,3.44v20.64h-27.52v-20.64c-0.00019,-1.89978 -1.54022,-3.43981 -3.44,-3.44zM20.64,20.64h44.72v38.1625v6.5575h-44.72zM106.64,20.64h44.72v44.72h-44.72v-8.17zM72.24,44.72h27.52v12.47v11.61c0.00019,1.89978 1.54022,3.43981 3.44,3.44h24.08v27.52h-10.535h-13.545c-1.89978,0.00019 -3.43981,1.54022 -3.44,3.44v24.08h-27.52v-6.44328c0.04369,-0.31427 0.04369,-0.63307 0,-0.94735v-4.11187v-12.5775c-0.00019,-1.89978 -1.54022,-3.43981 -3.44,-3.44h-16.6961c-0.1891,-0.02703 -0.38013,-0.03827 -0.57109,-0.0336c-0.12818,0.00405 -0.25604,0.01527 -0.38297,0.0336h-6.42985v-27.52h24.08c1.89978,-0.00019 3.43981,-1.54022 3.44,-3.44v-9.9975zM20.64,106.64h5.45562l-5.45562,5.45563zM35.82437,106.64h7.47125l-22.65563,22.65563v-7.47125c0.00901,-0.00891 0.01797,-0.01787 0.02688,-0.02687zM53.02437,106.64h7.47125l-39.85563,39.85563v-7.47125zM106.64,106.64h10.105h34.615v44.72h-44.72zM65.36,111.50437v4.27313v3.19813l-32.01484,32.01484c-0.11847,0.11511 -0.22849,0.23861 -0.32922,0.36953h-7.51156zM65.36,128.70437v7.47125l-14.81485,14.81484c-0.11847,0.11511 -0.22849,0.23861 -0.32922,0.36953h-7.51156zM65.36,145.90437v5.45563h-5.45563z"></path></g>
</g></svg>