<svg xmlns="http://www.w3.org/2000/svg" x="0px" y="0px"
width="20" height="20"
viewBox="0 0 172 172"
style=" fill:#000000;"><g fill="none" fill-rule="nonzero" stroke="none" stroke-width="1" stroke-linecap="butt" stroke-linejoin="miter" stroke-miterlimit="10" stroke-dasharray="" stroke-dashoffset="0" font-family="none" font-weight="none" font-size="none" text-anchor="none" style="mix-blend-mode: normal"><path d="M0,172v-172h172v172z" fill="none"></path><g fill="#000000"><path d="M10.32,10.32c-1.89469,0 -3.44,1.54531 -3.44,3.44v61.92c0,1.89469 1.54531,3.44 3.44,3.44h151.36c1.90813,0 3.44,-1.54531 3.44,-3.44v-61.92c0,-1.89469 -1.53187,-3.44 -3.44,-3.44zM34.4,37.84c3.80281,0 6.88,3.07719 6.88,6.88c0,3.80281 -3.07719,6.88 -6.88,6.88c-3.80281,0 -6.88,-3.07719 -6.88,-6.88c0,-3.80281 3.07719,-6.88 6.88,-6.88zM68.8,37.84c3.80281,0 6.88,3.07719 6.88,6.88c0,3.80281 -3.07719,6.88 -6.88,6.88c-3.80281,0 -6.88,-3.07719 -6.88,-6.88c0,-3.80281 3.07719,-6.88 6.88,-6.88zM103.2,37.84c3.80281,0 6.88,3.07719 6.88,6.88c0,3.80281 -3.07719,6.88 -6.88,6.88c-3.80281,0 -6.88,-3.07719 -6.88,-6.88c0,-3.80281 3.07719,-6.88 6.88,-6.88zM137.6,37.84c3.80281,0 6.88,3.07719 6.88,6.88c0,3.80281 -3.07719,6.88 -6.88,6.88c-3.80281,0 -6.88,-3.07719 -6.88,-6.88c0,-3.80281 3.07719,-6.88 6.88,-6.88zM113.1975,92.7725c-0.14781,0.02688 -0.29562,0.06719 -0.43,0.1075c-1.59906,0.36281 -2.72781,1.80063 -2.6875,3.44v6.5575c-6.19469,-6.15437 -14.64687,-9.9975 -24.08,-9.9975c-19.04094,0 -34.4,15.35906 -34.4,34.4c0,19.04094 15.35906,34.4 34.4,34.4c19.04094,0 34.4,-15.35906 34.4,-34.4h-6.88c0,15.35906 -12.16094,27.52 -27.52,27.52c-15.35906,0 -27.52,-12.16094 -27.52,-27.52c0,-15.35906 12.16094,-27.52 27.52,-27.52c8.7075,0 16.34,4.04469 21.3925,10.32h-11.0725c-1.23625,-0.01344 -2.39187,0.63156 -3.02344,1.70656c-0.61813,1.075 -0.61813,2.39187 0,3.46687c0.63156,1.075 1.78719,1.72 3.02344,1.70656h20.64v-20.64c0.04031,-0.99437 -0.36281,-1.94844 -1.075,-2.62031c-0.72562,-0.68531 -1.70656,-1.02125 -2.6875,-0.92719z"></path></g></g></svg>